<?xml version="1.0" standalone="no"?>
<!DOCTYPE svg PUBLIC "-//W3C//DTD SVG 20010904//EN"
 "http://www.w3.org/TR/2001/REC-SVG-20010904/DTD/svg10.dtd">
<svg version="1.0" xmlns="http://www.w3.org/2000/svg"
 width="960.000000pt" height="720.000000pt" viewBox="0 0 960.000000 720.000000"
 preserveAspectRatio="xMidYMid meet">
<metadata>
Created by potrace 1.14, written by Peter Selinger 2001-2017
</metadata>
<g transform="translate(0.000000,720.000000) scale(0.100000,-0.100000)"
fill="#000000" stroke="none">
<path d="M356 7178 c-8 -12 -19 -17 -26 -13 -7 4 -16 1 -21 -6 -6 -11 -11 -11
-21 -1 -28 28 -78 -2 -78 -49 0 -23 -42 -79 -59 -79 -4 0 -14 -11 -21 -25 -16
-30 -20 -31 -51 -4 -14 12 -31 18 -44 15 -11 -3 -23 -6 -27 -6 -5 0 -8 -307
-8 -682 1 -601 2 -681 15 -664 8 11 17 17 20 14 3 -2 -4 -13 -15 -23 -20 -18
-20 -29 -20 -1621 l0 -1603 25 -25 c28 -28 30 -47 14 -147 -8 -45 -16 -69 -25
-69 -12 0 -14 -183 -14 -1094 l0 -1095 38 5 c20 3 77 12 127 19 115 18 420 60
551 76 111 14 162 6 109 -16 -26 -11 -294 -55 -455 -75 -42 -5 -27 -7 65 -8
66 0 109 3 95 7 -24 7 -24 8 8 13 24 3 32 1 28 -8 -4 -11 459 -13 2647 -11
l2652 2 7 40 c28 150 30 156 44 151 9 -4 14 2 15 17 1 36 19 -31 20 -76 1 -42
19 -46 30 -6 6 21 7 21 9 4 3 -28 0 -75 -6 -107 -5 -23 -2 -28 14 -28 11 0 23
6 25 13 4 9 6 9 6 0 1 -10 365 -13 1786 -13 l1785 0 0 725 0 725 -27 0 c-16 0
-111 17 -213 36 -102 20 -209 39 -238 44 -30 5 -56 11 -60 14 -13 13 8 17 44
7 22 -5 55 -12 74 -14 19 -3 50 -9 69 -13 27 -6 32 -4 26 6 -5 8 -4 11 2 7 6
-4 42 15 80 42 75 51 161 96 169 88 3 -2 -20 -18 -50 -35 -107 -61 -191 -122
-167 -122 12 0 54 -6 94 -14 142 -28 147 -28 147 -10 0 12 6 15 25 10 l25 -6
0 105 c0 101 -1 105 -19 95 -11 -5 -23 -10 -28 -10 -4 1 4 8 20 16 l27 15 0
154 c0 85 -4 155 -9 155 -5 0 -12 15 -16 33 l-7 32 -9 -29 c-4 -16 -6 -34 -2
-39 3 -5 -3 -6 -16 -2 -19 6 -21 3 -21 -42 0 -87 -18 -112 -60 -82 -12 8 -8 9
13 4 l28 -6 -2 60 c-3 84 -15 94 -23 21 -6 -52 -9 -60 -22 -50 -13 12 -18 7
-15 -13 1 -5 -3 -6 -9 -2 -5 3 -18 1 -29 -5 -15 -7 -67 -1 -211 25 -235 43
-339 55 -545 64 l-160 6 -7 65 c-15 129 -48 493 -45 496 6 7 845 43 940 41
103 -3 108 -2 106 18 -3 37 1 55 11 55 6 0 10 -16 10 -35 0 -31 3 -35 28 -35
15 0 37 -3 50 -6 l22 -6 0 326 c0 254 -3 326 -12 326 -10 0 -10 2 -1 8 8 5 11
67 12 208 l0 200 -119 59 c-66 32 -118 61 -116 63 2 2 54 -22 115 -52 61 -31
113 -56 116 -56 3 0 5 85 5 190 0 163 -2 193 -17 209 -17 21 -39 19 -26 -2 4
-6 -6 -2 -21 11 -16 12 -32 19 -37 16 -5 -3 -18 0 -30 6 -19 11 -20 10 -9 -9
8 -16 8 -21 -3 -21 -7 0 -18 5 -25 12 -17 17 -27 1 -11 -18 13 -16 12 -16 -11
-4 -14 7 -29 18 -33 24 -6 8 -10 7 -14 -2 -4 -10 -8 -10 -21 0 -12 10 -16 10
-19 1 -3 -7 -11 -13 -19 -13 -8 0 -11 -6 -7 -17 4 -10 2 -14 -4 -10 -6 4 -13
1 -16 -5 -3 -10 -8 -10 -18 1 -9 9 -9 11 -1 7 6 -4 12 -2 12 3 0 15 -13 14
-46 -4 -16 -8 -23 -15 -16 -15 7 0 10 -5 7 -10 -10 -17 -35 8 -28 27 5 13 2
15 -11 10 -11 -5 -15 -3 -10 5 5 8 2 9 -11 5 -9 -4 -23 -3 -29 2 -10 9 -46 15
-73 12 -7 -1 -13 -8 -13 -16 0 -18 -4 -19 -31 -2 -17 10 -22 9 -30 -5 -6 -10
-20 -18 -32 -18 -13 0 -28 -5 -33 -10 -15 -15 -67 -24 -59 -10 9 15 -29 50
-55 50 -22 0 -28 25 -7 33 20 7 -44 29 -90 31 -38 1 -43 4 -43 24 0 20 -4 22
-22 17 -30 -9 -39 -18 -42 -41 -2 -15 -16 -21 -59 -28 -32 -5 -57 -13 -57 -18
0 -4 6 -8 14 -8 8 0 16 -6 19 -13 5 -13 -2 -67 -9 -67 -13 0 -163 43 -181 52
-13 6 -26 8 -30 3 -5 -4 -2 -10 5 -12 13 -5 7 -23 -8 -23 -5 0 -7 15 -4 32 2
18 -1 71 -7 118 -6 47 -12 136 -14 199 -3 62 -7 122 -10 132 -9 26 -62 52 -94
46 -25 -5 -52 7 -266 123 -27 15 -212 109 -410 210 -198 100 -378 193 -400
205 -22 12 -195 101 -385 197 -462 235 -1053 538 -1065 548 -5 4 -66 37 -135
73 -241 125 -325 169 -357 189 -18 11 -38 16 -44 12 -7 -4 -9 -3 -5 4 4 6 -35
31 -96 62 -109 55 -253 131 -303 160 -16 10 -75 41 -130 70 -55 29 -149 81
-210 115 -60 34 -150 84 -200 110 -49 26 -126 67 -170 90 -119 63 -221 117
-405 213 -91 47 -178 96 -195 108 -16 12 -94 54 -173 93 l-143 71 -85 0 c-54
0 -83 -4 -79 -10 3 -5 -1 -10 -10 -10 -9 0 -13 5 -10 10 4 7 -55 10 -169 10
l-176 0 0 -29 c0 -44 -28 -49 -32 -5 l-3 35 -295 -298 c-660 -667 -851 -863
-843 -863 5 0 47 38 92 85 46 47 87 85 92 85 5 0 9 3 9 8 0 4 47 56 104 115
79 81 106 103 109 89 3 -12 5 -11 6 6 1 25 218 255 232 246 4 -2 10 4 13 14 3
10 24 36 47 58 24 23 37 31 33 20 -5 -14 -4 -17 5 -12 6 4 10 13 9 20 -4 17
70 98 83 91 5 -4 9 -3 8 2 -3 20 2 27 12 13 9 -13 10 -13 7 0 -4 23 33 72 49
66 8 -3 12 -2 9 3 -3 5 1 14 9 21 14 12 19 7 16 -13 -1 -5 3 -6 9 -2 8 5 8 11
1 19 -8 9 5 28 44 70 30 31 58 55 62 53 5 -3 17 2 28 10 17 14 18 15 2 9 -16
-5 -16 -3 3 24 26 37 40 38 40 4 0 -26 -127 -162 -404 -432 -48 -48 -132 -132
-185 -186 -53 -54 -102 -104 -109 -110 -6 -6 -51 -51 -100 -100 -303 -308
-304 -309 -335 -295 -21 9 -25 20 -31 73 -9 82 -12 114 -14 157 -1 19 -10 44
-20 55 -9 10 -30 35 -46 54 -40 48 -118 73 -207 66 l-67 -6 -40 40 c-50 51
-86 53 -137 9 -29 -26 -36 -28 -41 -15 -3 9 -10 16 -15 16 -4 0 -20 11 -35 25
-15 14 -31 25 -36 25 -5 0 -30 20 -55 45 -24 25 -83 66 -130 92 -89 50 -112
78 -93 113 16 30 12 50 -10 50 -14 0 -20 7 -20 23 0 12 -3 39 -6 60 -6 32 -4
37 12 37 38 0 61 27 67 78 4 35 17 66 46 107 23 32 41 62 41 66 0 5 -36 8 -80
8 -69 0 -82 -3 -94 -21z m2299 -65 c-3 -27 -9 -82 -11 -123 -2 -41 -8 -88 -13
-105 -5 -16 -9 -77 -9 -135 -1 -169 -13 -404 -22 -415 -4 -5 -6 -28 -4 -50 3
-35 -1 -46 -30 -79 -33 -36 -35 -37 -39 -14 -3 17 -5 13 -6 -12 -2 -34 -20
-70 -36 -70 -4 0 -5 6 -2 14 3 8 2 16 -3 18 -6 2 -7 41 -3 91 3 49 9 84 12 79
3 -6 5 33 4 86 -1 99 5 131 18 96 6 -16 8 -14 8 9 1 16 -3 26 -9 22 -6 -4 -10
9 -9 32 0 29 2 34 8 18 7 -16 10 -11 15 25 4 25 9 72 10 105 15 286 20 341 33
353 16 16 13 -71 -17 -448 -18 -224 -24 -361 -15 -335 5 13 24 223 31 330 3
44 9 112 14 150 9 69 9 69 5 -25 -4 -104 7 -80 19 40 5 47 4 70 -3 70 -6 0
-11 11 -11 25 0 14 5 25 11 25 7 0 10 14 7 35 -2 19 0 36 5 38 6 2 11 30 13
62 3 54 23 135 33 135 2 0 0 -21 -4 -47z m-223 -132 c-8 -4 -13 -10 -11 -12 8
-14 -14 -202 -27 -229 -10 -20 -13 -35 -7 -39 12 -7 15 -69 3 -76 -4 -3 -6
-22 -4 -42 2 -21 -1 -74 -6 -118 -16 -124 -50 -518 -55 -640 -3 -60 -12 -162
-20 -225 -8 -63 -17 -152 -21 -198 -4 -45 -11 -85 -17 -89 -7 -4 -8 8 -4 35 4
24 3 43 -3 47 -6 4 -10 -15 -10 -49 0 -44 -5 -61 -21 -77 l-22 -22 7 27 c4 15
2 26 -4 26 -5 0 -10 -7 -10 -15 0 -8 -3 -15 -8 -15 -4 0 -4 51 1 113 16 238
22 377 15 377 -5 0 -7 19 -7 43 l2 42 7 -35 c6 -33 7 -34 13 -10 4 14 9 61 11
105 7 118 25 331 34 407 5 44 5 71 -2 78 -7 7 -5 10 4 10 11 0 15 12 13 51 0
28 3 64 7 80 6 19 5 29 -2 29 -7 0 -7 4 0 13 12 15 16 40 33 212 l12 120 42
43 c23 23 49 42 56 42 12 0 12 -2 1 -9z m-240 -234 c-7 -8 -9 -16 -6 -19 5 -5
-9 -165 -41 -483 -8 -82 -22 -229 -30 -325 -9 -96 -18 -186 -20 -200 -2 -14
-7 -61 -10 -105 -4 -44 -10 -93 -15 -110 -11 -36 -18 -80 -19 -117 -1 -16 -5
-28 -11 -28 -6 0 -10 29 -10 66 0 58 -2 65 -15 54 -8 -7 -15 -27 -15 -44 0
-17 -4 -37 -9 -45 -6 -9 -7 30 -5 97 3 71 0 112 -6 112 -5 0 -10 5 -10 10 0 6
8 10 18 10 13 0 14 2 3 9 -9 6 -11 20 -7 47 3 22 7 62 8 89 1 28 7 55 14 62 6
6 17 72 24 145 6 73 18 183 26 243 21 161 54 437 54 456 0 18 79 103 88 94 3
-2 0 -11 -6 -18z m-207 -221 c0 -20 -4 -32 -10 -28 -5 3 -4 -2 4 -11 7 -9 9
-17 4 -17 -5 0 -8 -17 -6 -37 1 -20 -1 -41 -6 -47 -5 -6 -12 -54 -15 -106 -3
-52 -10 -138 -16 -190 -5 -52 -17 -167 -26 -255 -21 -217 -40 -333 -59 -362
-9 -13 -15 -32 -14 -41 2 -9 -5 -30 -14 -47 l-18 -30 7 30 c3 17 7 75 9 130 2
87 1 92 -6 40 -23 -173 -32 -226 -36 -222 -4 5 23 328 32 382 6 33 11 75 20
180 7 86 44 384 50 405 2 8 9 56 15 105 10 80 15 94 43 123 17 17 33 32 36 32
4 0 6 -15 6 -34z m-204 -266 c6 0 8 -8 5 -17 -6 -20 -28 -233 -29 -276 0 -22
-4 -26 -19 -21 -14 4 -17 0 -16 -20 2 -18 8 -26 21 -26 17 0 19 -5 13 -42 -4
-24 -10 -72 -13 -108 -2 -36 -9 -66 -14 -68 -5 -2 -9 -27 -9 -55 0 -92 -55
-397 -74 -409 -6 -4 -11 -13 -12 -20 -2 -37 -18 -77 -32 -83 -8 -3 -16 -4 -17
-3 -1 2 1 31 4 65 6 54 5 60 -8 50 -12 -10 -14 -9 -8 6 4 10 7 23 7 28 0 6 4
8 8 5 5 -3 9 1 9 9 0 8 -5 15 -10 15 -6 0 -5 5 1 13 14 17 36 176 37 269 0 20
3 34 6 32 4 -2 9 10 11 26 4 27 2 30 -24 30 -26 0 -28 3 -22 23 4 12 12 25 18
29 8 5 8 13 -1 28 -23 36 -16 57 18 58 36 1 54 12 20 12 -14 0 -21 5 -18 13 2
6 10 11 16 9 6 -1 10 1 9 5 -5 22 15 73 30 74 15 1 15 2 -1 6 -13 4 -16 12
-12 41 3 20 14 95 24 167 16 111 22 132 42 148 21 17 24 17 27 3 2 -9 8 -16
13 -16z m-157 -82 c-4 -7 -8 -21 -9 -32 -1 -20 -19 -175 -34 -286 -4 -30 -4
-72 0 -92 3 -20 2 -35 -3 -32 -4 3 -8 -5 -9 -18 -1 -26 -3 -46 -12 -98 -3 -19
-9 -73 -12 -120 -4 -47 -15 -139 -25 -205 -10 -66 -26 -178 -36 -250 -17 -124
-19 -131 -51 -161 -29 -27 -31 -33 -18 -44 12 -10 13 -16 3 -28 -9 -11 -9 -14
-1 -9 14 9 11 -24 -6 -67 -8 -20 -9 -32 -1 -40 7 -7 10 -5 10 7 0 9 5 17 10
17 6 0 11 15 11 33 1 20 3 25 6 12 3 -10 0 -44 -7 -75 -11 -47 -14 -52 -21
-32 -11 30 -19 28 -19 -5 1 -32 -18 -153 -25 -168 -3 -5 -3 17 0 50 3 33 8 96
12 140 3 44 9 82 14 83 5 2 6 9 2 15 -11 18 -12 36 -2 43 5 3 5 13 -2 25 -7
13 -7 24 -1 32 6 7 10 49 9 95 -1 45 1 82 5 82 4 0 3 12 -2 26 -7 18 -7 30 0
39 18 21 16 88 -3 116 -10 14 -16 32 -14 40 2 8 2 11 0 6 -3 -4 -8 -5 -13 -2
-4 2 -7 -6 -7 -20 0 -14 3 -22 8 -19 5 3 6 -2 3 -10 -3 -9 -9 -14 -13 -12 -4
3 -7 -12 -8 -32 0 -25 1 -28 4 -10 4 27 33 61 33 39 0 -6 -5 -11 -10 -11 -7 0
-9 -28 -6 -77 l5 -78 -19 40 -19 40 -1 -33 c0 -20 4 -31 10 -27 12 8 12 -33
-1 -60 -7 -16 -8 -14 -4 10 4 23 3 26 -5 15 -6 -8 -9 -29 -8 -45 1 -17 -1 -35
-4 -40 -3 -6 -24 -161 -47 -345 -22 -184 -45 -365 -51 -403 -5 -37 -10 -79
-10 -93 0 -43 -31 -124 -47 -124 -10 0 -13 6 -8 18 3 9 11 69 16 132 13 165
26 258 43 314 9 30 12 54 6 61 -9 11 2 224 20 360 6 44 19 168 30 275 11 107
22 215 25 240 3 24 4 42 1 40 -14 -15 -54 -134 -50 -148 5 -13 4 -14 -4 -4 -7
10 -11 4 -16 -23 -4 -20 -10 -44 -13 -52 -4 -10 -2 -14 4 -10 6 4 14 0 17 -9
9 -24 6 -42 -4 -19 -17 41 -27 -28 -24 -153 3 -81 1 -121 -6 -117 -14 9 -13
-31 2 -55 7 -10 9 -23 5 -27 -5 -4 -12 -1 -17 7 -7 11 -10 8 -14 -11 -5 -23
-22 -159 -31 -249 -6 -49 -17 -149 -35 -300 -6 -52 -17 -137 -25 -187 -8 -51
-15 -109 -15 -128 0 -19 -3 -35 -8 -35 -4 0 -8 -19 -8 -42 -1 -24 -4 -53 -7
-65 -4 -14 -1 -23 6 -24 7 0 -3 -7 -22 -15 -18 -8 -34 -14 -36 -12 -1 2 3 53
10 113 21 175 51 481 61 622 3 48 8 91 11 96 2 4 4 37 4 74 0 37 4 72 9 78 11
13 7 101 -5 112 -4 5 -5 -2 -2 -15 3 -12 1 -20 -4 -16 -5 3 -9 -3 -9 -13 0
-11 -5 -24 -12 -31 -9 -9 -9 -17 1 -35 7 -14 11 -33 8 -43 -3 -13 -5 -11 -6 9
0 15 -5 27 -9 27 -11 0 -46 -204 -39 -229 3 -12 1 -19 -4 -15 -5 3 -7 -16 -4
-43 3 -33 2 -39 -3 -18 -5 22 -11 -7 -20 -105 -8 -74 -20 -180 -27 -235 -7
-55 -16 -127 -20 -160 -3 -33 -10 -87 -15 -120 -15 -93 -14 -98 13 -84 20 11
21 11 8 -4 -7 -10 -23 -17 -35 -17 -20 -1 -63 -26 -58 -35 8 -15 -1 -33 -18
-38 -27 -7 -27 27 0 50 15 13 20 30 20 68 0 27 9 102 19 165 22 130 118 601
155 760 31 135 82 282 89 255 2 -11 2 -6 0 11 -8 65 152 484 256 669 24 44 54
97 65 118 14 25 26 36 38 33 11 -2 15 1 11 10 -3 8 -9 12 -13 9 -4 -3 -2 16 6
43 14 46 24 100 45 252 9 58 17 81 37 103 26 27 60 39 46 15z m948 -115 c2
-34 1 -60 -3 -57 -4 2 -3 -10 2 -28 9 -31 8 -72 -11 -353 l-8 -110 2 137 c0
76 -2 130 -6 120 -12 -31 -9 -247 4 -260 9 -9 9 -15 0 -24 -7 -7 -12 -43 -12
-90 0 -47 -4 -78 -10 -78 -7 0 -7 -6 0 -19 13 -26 14 -52 0 -31 -6 10 -7 -10
-3 -58 4 -51 3 -72 -6 -72 -6 0 -11 8 -11 17 0 9 -3 13 -7 10 -3 -4 -5 -32 -4
-63 1 -31 -2 -61 -8 -67 -5 -7 -11 -57 -12 -112 -4 -152 -17 -157 -21 -8 -1
72 -1 130 1 127 7 -6 30 30 30 46 0 11 -3 10 -14 -4 -21 -28 -25 -17 -14 34 6
25 8 53 6 62 -3 10 -1 18 4 18 4 0 6 7 2 16 -3 8 0 84 6 167 6 84 18 249 27
367 8 118 18 217 23 220 4 3 14 43 21 90 15 94 17 94 22 3z m-382 -824 c0 -13
4 -18 12 -13 8 5 9 2 5 -10 -4 -10 -7 -23 -8 -29 0 -7 -5 -3 -10 8 -7 16 -8
14 -7 -15 0 -19 -2 -42 -5 -50 -6 -16 -20 -160 -20 -200 0 -14 -3 -50 -8 -80
-11 -73 -23 -226 -21 -270 1 -19 -2 -66 -8 -105 -5 -38 -12 -118 -15 -177 -6
-101 -6 -108 12 -109 10 0 0 -7 -22 -16 -22 -9 -100 -40 -174 -69 -74 -30
-136 -52 -138 -50 -4 4 70 35 212 90 68 26 80 35 82 56 2 14 19 239 38 500 42
560 42 560 61 560 8 0 14 -9 14 -21z m75 -111 c-6 -91 -19 -178 -26 -178 -5 0
-9 -17 -9 -37 -1 -61 -21 -13 -23 53 -1 40 -4 50 -11 37 -5 -9 -9 -35 -9 -57
l1 -41 -9 40 c-5 21 -6 51 -1 65 4 14 7 43 7 66 -1 36 2 43 34 62 47 28 48 27
46 -10z m176 -838 c-8 -4 -9 -15 -3 -30 l9 -23 17 24 17 24 -6 -40 c-5 -30 -4
-36 4 -25 9 12 11 11 11 -7 0 -12 3 -29 7 -39 5 -13 3 -16 -10 -11 -11 4 -17
1 -17 -8 0 -8 5 -15 10 -15 15 0 12 -51 -4 -69 -8 -9 -16 -29 -18 -46 -3 -16
-3 -24 -1 -17 3 6 9 12 14 12 12 0 12 -27 -1 -35 -5 -3 -10 -16 -11 -28 0 -21
-1 -21 -9 -2 -6 17 -8 14 -12 -15 -4 -30 -5 -28 -6 14 -3 71 -10 53 -20 -49
-6 -63 -6 -94 2 -104 13 -16 18 -201 6 -216 -4 -5 -11 -66 -15 -135 -7 -130
-9 -140 -27 -140 -7 0 -9 24 -5 73 4 46 3 65 -3 52 l-9 -20 0 20 c-2 44 59
843 65 858 3 9 11 14 16 11 7 -4 6 -9 -1 -14z m5424 -90 c-3 -5 3 -6 13 -3 20
5 41 -14 46 -43 2 -11 8 -32 12 -49 7 -27 6 -29 -9 -17 -9 8 -17 30 -19 50 -2
26 -8 38 -21 40 -14 3 -17 -2 -13 -23 3 -15 8 -30 12 -34 4 -3 5 6 2 21 -3 15
-1 25 3 22 12 -7 11 -41 -1 -49 -13 -8 -13 -51 1 -77 11 -21 12 -21 25 -3 13
18 14 17 14 -8 0 -15 5 -27 10 -27 16 0 12 -18 -10 -40 -23 -23 -27 -81 -7
-123 17 -37 23 -34 31 12 6 41 0 71 -18 83 -18 12 -2 16 44 9 l45 -6 2 -50 c3
-60 13 -118 28 -160 7 -18 6 -18 -9 1 -10 14 -30 23 -56 26 -52 5 -47 -15 5
-22 42 -5 51 -20 57 -103 l3 -42 -40 3 c-22 2 -46 11 -52 20 -9 10 -34 17 -73
20 -33 2 -60 8 -60 13 0 5 6 9 13 9 8 0 8 3 1 8 -5 4 -10 27 -9 52 1 25 -3 48
-9 52 -19 13 -1 15 59 8 33 -4 66 -5 73 -2 25 9 10 18 -35 20 -90 4 -121 16
-90 33 12 7 16 17 12 30 -4 10 -8 40 -11 66 -2 26 -9 52 -14 57 -19 19 -9 23
47 15 32 -4 60 -6 62 -3 11 10 -25 24 -64 24 -48 0 -77 15 -57 29 10 6 12 25
6 80 -3 39 -11 74 -15 77 -20 12 -6 19 31 16 22 -2 38 -8 35 -12z m-5058 -621
c-2 -11 -9 -24 -15 -28 -11 -7 117 -29 303 -51 39 -5 120 -16 180 -24 61 -9
191 -27 290 -40 99 -14 227 -32 285 -40 58 -9 222 -32 365 -52 143 -20 298
-42 345 -49 47 -7 142 -20 212 -30 101 -14 125 -21 121 -32 -4 -11 -8 -12 -13
-3 -5 9 -9 9 -14 1 -4 -6 -2 -11 4 -11 6 0 9 -4 6 -9 -4 -5 5 -4 19 2 14 7 23
17 21 23 -3 8 11 8 47 2 80 -14 89 -15 130 -17 l37 -1 -1 -297 c-1 -279 -2
-294 -15 -239 -37 153 -92 182 -234 127 -62 -24 -63 -24 -56 -12 12 19 -40 49
-96 56 l-58 7 0 -116 0 -116 -35 0 -35 0 0 104 c0 99 -1 104 -24 120 -14 8
-50 19 -80 22 l-56 7 -1 -59 c-1 -33 -1 -63 0 -67 1 -5 -34 -7 -76 -6 l-78 2
-6 -109 c-4 -60 -7 -137 -8 -171 -1 -59 -2 -62 -28 -66 -16 -3 -2 -3 30 -2 32
2 61 5 63 7 4 5 12 60 14 98 l1 25 15 -28 c8 -16 12 -38 9 -50 -5 -16 -4 -18
3 -8 18 26 42 -41 42 -119 0 -64 -9 -86 -25 -60 -9 14 -48 13 -63 -2 -7 -7
-12 -21 -12 -32 0 -17 -2 -18 -10 -6 -7 10 -9 -7 -8 -57 1 -40 2 -73 4 -73 17
0 74 34 74 44 0 7 6 19 14 26 8 6 12 19 9 28 -6 15 -5 15 10 3 20 -16 23 -1 5
18 -11 10 -8 10 15 0 15 -7 27 -16 27 -21 0 -4 29 -8 65 -8 l65 0 0 125 c0
117 1 125 19 125 49 0 52 -6 50 -114 -2 -96 0 -101 22 -118 14 -10 46 -18 79
-20 51 -2 54 -1 55 22 6 142 9 171 12 145 7 -54 35 -130 57 -154 11 -13 36
-30 54 -38 33 -13 57 -7 167 43 6 3 9 -21 8 -63 -1 -38 -2 -89 -2 -115 -1 -38
-5 -48 -18 -49 -17 -1 -17 -2 0 -6 19 -5 23 -19 6 -25 -8 -3 -8 -10 2 -25 7
-12 10 -26 6 -30 -5 -4 -12 -1 -17 7 -7 11 -10 6 -10 -18 0 -18 5 -31 11 -30
7 2 11 -25 11 -77 0 -44 3 -84 7 -90 4 -5 6 -31 3 -57 -3 -36 -7 -45 -19 -41
-12 5 -12 8 -1 15 10 7 9 8 -4 4 -14 -4 -18 0 -18 19 0 24 -3 25 -57 23 l-58
-2 51 -3 c47 -4 52 -6 57 -31 3 -15 4 -28 4 -29 -5 -4 -138 -15 -417 -33 -168
-12 -357 -25 -420 -30 -63 -5 -138 -8 -167 -7 -28 1 -49 -1 -46 -5 2 -5 -6 -8
-19 -8 -37 0 -423 -30 -898 -70 -308 -25 -288 -25 -265 0 10 11 13 20 7 20 -6
0 -14 -5 -17 -10 -5 -8 -11 -7 -21 0 -7 7 -19 10 -26 7 -8 -3 -5 -6 6 -6 14
-1 16 -4 7 -15 -16 -19 -89 -30 -276 -42 l-110 -7 -3 38 -2 37 37 -5 c21 -2
30 -2 20 0 -10 3 -21 11 -24 19 -3 8 -14 14 -24 14 -21 0 -34 -36 -27 -75 3
-14 0 -26 -8 -29 -10 -4 -13 4 -10 34 2 21 7 43 10 48 3 6 0 12 -6 15 -27 9 1
17 85 23 55 4 91 12 98 21 10 11 8 12 -15 3 -15 -5 -62 -10 -103 -10 -42 0
-91 -5 -110 -12 -18 -6 -35 -9 -39 -6 -6 7 28 528 51 778 8 81 18 146 24 148
14 5 14 52 1 52 -6 0 -8 20 -5 48 2 26 7 90 10 142 7 122 13 206 25 355 5 66
17 217 26 335 8 118 19 219 24 223 4 5 44 5 89 2 l81 -8 1 -41 c2 -30 3 -33 6
-13 4 27 23 39 23 15 0 -9 4 -8 10 2 6 9 10 10 10 3 0 -6 -5 -15 -10 -18 -8
-5 -7 -11 1 -21 15 -18 38 -18 45 1 4 8 10 12 15 9 5 -3 9 -2 9 3 -1 21 -21
35 -59 40 -22 3 -41 10 -41 15 0 4 10 6 23 4 59 -12 110 -16 135 -9 l27 7 -25
7 -25 7 25 2 c23 1 23 2 5 10 -19 8 -19 9 2 9 18 1 22 -4 20 -20z m-1990 -111
c-2 -13 -2 -17 0 -10 6 18 21 15 26 -5 3 -13 5 -12 6 5 0 13 5 20 11 17 6 -4
10 -12 9 -18 -4 -30 4 -39 11 -12 5 19 6 5 3 -39 -2 -38 -10 -78 -17 -90 -21
-32 -28 -74 -16 -96 6 -10 6 -21 1 -24 -10 -6 -21 26 -21 62 0 12 -4 22 -10
22 -10 0 -14 -24 -12 -70 1 -21 -1 -20 -11 8 l-13 33 -18 -51 c-10 -28 -16
-53 -14 -56 3 -2 10 14 17 37 17 57 24 43 10 -21 -6 -29 -9 -68 -6 -86 3 -19
2 -36 -4 -39 -5 -3 -6 1 -3 9 3 9 1 16 -5 16 -6 0 -8 11 -5 29 3 16 1 31 -4
35 -7 4 -10 -10 -8 -38 2 -30 -1 -43 -8 -39 -6 3 -5 0 2 -8 18 -19 15 -34 -4
-18 -13 10 -15 24 -9 64 10 82 64 345 80 393 7 21 16 13 12 -10z m7823 -220
c1 -13 9 -86 19 -163 11 -77 16 -143 13 -147 -9 -8 -262 -31 -269 -24 -7 7
-36 317 -30 322 6 6 189 32 235 33 27 1 32 -3 32 -21z m-6264 -45 c-3 -10 -7
-57 -10 -104 -3 -47 -8 -94 -12 -103 -3 -9 -1 -23 6 -31 10 -12 10 -15 0 -15
-7 0 -10 -6 -7 -14 3 -8 2 -16 -4 -18 -5 -2 -6 -15 0 -33 6 -21 4 -34 -4 -42
-7 -6 -17 -69 -24 -144 -28 -316 -38 -454 -34 -466 3 -7 0 -13 -6 -13 -6 0
-11 -12 -11 -27 0 -14 -2 -24 -6 -21 -3 3 2 88 10 189 9 101 20 247 26 324 6
77 14 149 17 160 4 11 7 27 8 35 1 8 7 51 14 94 6 44 9 94 5 112 -3 19 -1 34
5 39 7 4 9 20 5 42 -5 25 -3 38 7 44 20 12 21 11 15 -8z m2890 -12 c-3 -5 1
-12 10 -15 9 -4 13 -2 8 5 -8 14 48 8 236 -22 167 -27 162 -26 265 -40 50 -6
97 -15 105 -19 16 -9 16 -10 18 -87 1 -29 5 -53 10 -53 4 0 6 20 4 45 -4 40
-2 44 14 38 15 -6 16 -2 10 27 -6 32 -5 33 8 15 9 -11 16 -15 16 -10 0 7 15 9
34 7 27 -3 35 -9 39 -30 3 -15 1 -32 -4 -39 -6 -7 -6 -12 0 -15 5 -2 11 -164
14 -395 3 -216 8 -396 10 -400 2 -5 5 -105 6 -223 2 -118 4 -216 6 -218 2 -2
-6 -13 -16 -23 -15 -15 -31 -19 -62 -17 l-42 3 -7 245 c-14 528 -23 772 -26
706 l-3 -69 -107 7 c-145 9 -155 9 -173 -11 -27 -31 -79 -77 -79 -70 0 3 27
32 60 64 l61 58 -22 55 c-24 60 -46 90 -63 90 -6 -1 -35 -22 -65 -49 l-53 -49
-39 39 c-42 42 -47 44 -159 56 l-75 8 0 197 0 198 33 0 c18 0 31 -4 28 -9z
m869 -154 c-1 -34 3 -34 16 -1 9 26 12 27 73 22 73 -6 94 -14 76 -32 -8 -8
-13 -8 -18 2 -9 13 -102 29 -102 18 0 -14 21 -46 30 -46 14 0 12 27 -2 33 -10
4 -10 6 0 6 7 1 15 -5 18 -13 3 -8 13 -12 25 -9 13 4 19 0 19 -12 0 -14 3 -15
15 -5 8 6 18 9 24 6 5 -3 12 0 14 6 3 7 6 4 6 -7 1 -16 3 -17 11 -5 6 9 5 19
-3 29 -10 12 -8 13 13 8 14 -4 31 -7 38 -7 6 0 12 -7 12 -15 0 -8 8 -15 18
-15 14 0 15 2 2 10 -17 11 -10 13 40 10 19 -1 40 -6 45 -10 6 -5 42 -12 80
-15 100 -9 116 -12 255 -35 69 -12 146 -24 173 -27 57 -7 69 -19 27 -28 -16
-4 -32 -11 -35 -16 -4 -5 -16 -9 -28 -10 -18 0 -19 -2 -5 -7 9 -4 31 -20 50
-37 l33 -30 -55 -6 c-74 -8 -142 -28 -135 -39 3 -5 32 1 65 13 50 18 63 20 80
9 11 -6 41 -12 66 -12 45 0 46 1 40 28 -4 15 -3 22 1 16 4 -6 28 -15 51 -19
36 -6 43 -10 39 -26 -8 -31 12 -33 24 -2 8 20 7 39 -1 67 -14 46 -4 59 36 53
29 -4 28 -4 -3 -6 -23 -1 -33 -6 -33 -17 0 -8 4 -13 9 -10 12 8 22 -77 10 -88
-13 -14 -11 -28 4 -23 8 2 12 24 12 62 0 36 5 60 12 62 8 3 12 -22 15 -83 l3
-86 -90 6 c-50 4 -136 14 -190 22 -55 9 -111 17 -125 18 -70 7 -172 18 -230
26 -79 11 -191 25 -323 41 -78 9 -100 16 -108 30 -13 25 -29 24 -29 -2 0 -15
5 -19 15 -15 8 3 15 1 15 -4 0 -5 26 -11 58 -15 31 -4 64 -9 72 -12 8 -4 40
-6 70 -5 35 1 47 -1 32 -6 -13 -4 -24 -11 -24 -17 -1 -5 -8 -15 -16 -21 -18
-13 -7 -22 42 -35 26 -7 24 -8 -13 -5 -24 3 -50 2 -57 -1 -20 -8 -17 -33 4
-31 9 1 35 0 57 -2 l40 -3 -48 -6 c-54 -7 -67 -25 -22 -29 47 -4 89 -23 73
-33 -19 -12 -38 -11 -36 2 2 6 -3 14 -9 16 -8 3 -13 -4 -13 -17 0 -15 -5 -20
-17 -18 -10 2 -17 10 -15 16 2 14 -14 14 -43 2 -18 -8 -17 -9 8 -9 15 -1 27
-6 27 -11 0 -13 -158 -11 -166 1 -3 5 -10 7 -15 4 -24 -15 -2 -23 74 -24 45
-1 111 -6 147 -11 90 -13 113 -12 76 4 -24 11 -26 14 -10 18 15 4 19 13 18 46
-2 32 2 41 18 45 13 4 17 2 11 -6 -5 -7 -8 -57 -8 -112 1 -86 4 -100 19 -103
15 -3 16 3 11 50 -8 62 2 60 13 -3 11 -63 35 -59 43 6 l6 50 1 -42 c2 -52 10
-73 28 -73 11 0 13 14 8 63 -10 125 -15 147 -30 147 -8 0 -14 5 -14 10 0 19
32 10 37 -10 3 -11 9 -20 14 -20 5 0 6 -7 2 -15 -4 -13 0 -15 21 -11 14 3 26
0 26 -5 0 -5 -9 -9 -20 -9 -24 0 -36 -53 -24 -106 7 -27 17 -39 41 -49 27 -12
31 -11 26 1 -3 8 -1 14 4 14 5 0 10 17 11 37 4 54 12 54 12 0 0 -27 -5 -47
-11 -47 -5 0 -7 -5 -4 -10 3 -6 -1 -13 -9 -16 -28 -11 -7 -22 52 -29 31 -3 67
-10 80 -16 31 -12 80 22 58 40 -10 8 -20 6 -40 -10 -14 -11 -26 -16 -26 -10 0
6 -18 11 -41 11 -28 0 -38 4 -33 12 5 8 2 9 -9 5 -10 -3 -17 -2 -17 2 0 15 27
20 39 8 22 -22 43 21 39 81 -2 34 1 52 9 52 6 0 9 -8 6 -19 -6 -23 33 -37 41
-14 9 23 7 45 -4 38 -18 -11 -23 25 -6 50 20 30 20 33 0 31 -12 -1 -18 9 -21
29 -3 26 -2 28 10 13 12 -15 14 -15 24 1 9 14 9 21 0 30 -8 8 -6 11 9 11 33
-1 140 -28 114 -29 -14 -1 -40 3 -57 8 -33 10 -60 -4 -29 -14 48 -15 52 -18
27 -23 -19 -3 -21 -6 -10 -13 11 -7 9 -9 -7 -9 -23 0 -51 -26 -40 -37 4 -4 11
-1 16 6 4 8 15 11 25 8 10 -5 14 -3 9 4 -4 7 -1 10 7 7 8 -3 13 -13 13 -22 -1
-9 2 -16 7 -16 5 0 9 4 9 9 0 5 9 11 20 14 11 3 18 1 14 -4 -3 -5 2 -9 10 -9
8 0 17 10 19 23 4 19 4 18 6 -5 1 -28 25 -40 33 -17 5 16 46 -10 54 -34 4 -14
9 -16 17 -8 7 7 6 15 -2 25 -11 13 -9 16 13 22 14 3 31 4 38 1 7 -3 1 -6 -14
-6 -16 -1 -28 -5 -28 -11 0 -5 13 -7 31 -3 21 4 34 1 40 -8 6 -11 11 -11 20
-2 9 9 9 16 -2 29 -12 15 -12 16 0 9 11 -6 13 -1 9 24 -3 18 -1 34 4 37 4 3 8
-22 8 -56 l0 -61 -50 7 c-46 6 -50 5 -50 -15 0 -14 6 -21 19 -21 18 0 18 -3 5
-62 -17 -79 -17 -78 0 -78 15 0 21 17 31 93 4 26 11 47 16 47 5 0 9 -4 9 -10
0 -5 7 -7 15 -4 16 6 14 -16 -5 -93 -8 -33 1 -50 20 -38 6 4 10 -19 10 -62 -1
-53 -3 -64 -11 -50 -6 10 -9 27 -6 38 3 10 1 19 -4 19 -5 0 -9 7 -9 16 0 8 5
12 10 9 6 -3 10 -1 10 4 0 12 -4 13 -67 15 -42 2 -54 -6 -32 -20 6 -3 16 -1
22 5 6 6 16 11 22 11 5 0 2 -7 -9 -15 -10 -7 -15 -18 -12 -23 3 -6 -5 -9 -19
-8 -25 1 -36 16 -12 16 8 1 7 5 -4 13 -11 9 -14 20 -8 40 6 24 5 26 -7 16 -8
-6 -14 -18 -14 -25 0 -19 -40 -18 -67 1 -14 10 -20 21 -16 32 4 11 3 14 -5 9
-7 -4 -12 -14 -12 -22 0 -8 -7 -17 -15 -20 -25 -10 -17 -20 18 -21 33 0 97
-10 103 -15 2 -2 -2 -10 -7 -18 -8 -11 -12 -12 -16 -2 -7 17 -30 15 -30 -3 0
-12 16 -15 81 -15 73 1 79 2 62 15 -11 8 -16 15 -10 15 21 -1 36 -19 32 -41
-3 -22 -7 -24 -55 -23 -123 3 -205 25 -140 37 13 3 8 5 -15 6 -21 0 -38 5 -38
11 0 5 -7 7 -15 4 -8 -4 -15 -10 -15 -15 0 -5 7 -9 15 -9 8 0 15 -5 15 -11 0
-8 -47 -10 -162 -6 -90 3 -143 2 -118 -2 l45 -7 -40 -6 c-24 -3 -17 -4 18 -2
33 2 57 0 57 -6 0 -6 -36 -10 -82 -11 -46 0 -78 -3 -71 -5 9 -4 9 -13 2 -32
-9 -25 -8 -26 6 -8 15 19 15 19 15 -5 0 -17 3 -20 9 -10 5 7 6 22 4 32 -5 16
0 19 34 19 36 0 39 -2 39 -27 0 -22 -4 -28 -23 -29 -15 -1 -23 3 -20 10 3 6
-1 16 -8 23 -9 8 -12 5 -13 -15 -2 -63 -4 -66 -21 -43 -15 20 -16 16 -13 -54
2 -41 8 -75 13 -75 5 0 10 8 10 18 1 16 2 16 6 0 2 -10 9 -18 14 -18 5 0 9 8
9 18 1 16 1 16 11 0 5 -10 17 -18 24 -18 21 0 20 69 0 76 -8 4 -15 11 -15 16
0 6 6 8 14 5 10 -4 12 0 9 14 -3 10 -9 19 -14 19 -5 0 -9 5 -9 10 0 6 6 10 13
9 33 -4 67 2 67 13 0 6 -7 19 -16 29 -14 16 -13 17 8 18 13 0 41 2 63 4 22 2
28 2 12 0 -15 -2 -25 -8 -22 -13 3 -5 12 -7 19 -4 8 3 28 -2 46 -11 24 -12 35
-14 45 -5 8 7 19 9 24 6 5 -4 12 -2 16 4 10 15 35 12 35 -5 0 -8 -7 -15 -15
-15 -8 0 -15 -4 -15 -9 0 -16 21 -24 32 -13 7 7 19 5 36 -4 34 -17 79 -18 85
-1 3 9 7 9 20 -2 9 -7 14 -17 11 -22 -3 -5 -3 -9 1 -9 3 0 10 11 15 25 11 28
28 33 36 11 11 -27 34 -6 27 25 -3 18 -1 29 6 29 6 0 11 -19 11 -46 0 -41 -2
-45 -20 -39 -18 6 -19 3 -13 -42 10 -80 21 -95 24 -33 l2 55 7 -50 c5 -27 9
-61 9 -75 l1 -25 -428 -3 c-235 -2 -430 -6 -434 -10 -4 -4 11 -6 33 -4 63 6
370 -9 364 -18 -3 -4 -73 -6 -157 -5 l-153 3 135 -8 c74 -4 142 -9 150 -10 24
-4 -61 -19 -100 -18 -32 1 -31 2 10 8 38 6 33 7 -35 8 -44 0 -89 -4 -100 -9
-15 -7 -12 -8 13 -3 l32 6 0 -81 0 -81 -42 -1 c-24 0 -113 -4 -198 -8 -109 -5
-157 -5 -162 3 -12 17 -9 26 6 26 9 0 12 7 9 20 -3 11 -9 20 -14 20 -5 0 -9
-9 -9 -20 0 -11 -5 -20 -11 -20 -7 0 -9 -10 -7 -25 5 -23 2 -25 -32 -25 -28 0
-39 5 -48 23 -6 12 -13 106 -16 212 -4 105 -11 285 -16 400 -6 116 -10 246
-10 290 1 44 -2 156 -6 249 -6 143 -5 168 7 164 8 -3 14 -17 14 -31z m1741
-250 c4 -3 7 -45 8 -94 1 -66 -2 -87 -11 -85 -15 2 -18 -24 -4 -32 5 -4 12 0
15 6 3 7 3 -7 1 -32 -4 -35 -3 -39 4 -20 7 19 9 5 10 -53 1 -69 -1 -78 -16
-75 -14 2 -19 -5 -21 -34 -2 -20 2 -47 9 -60 9 -16 9 -23 0 -26 -6 -2 -11 -8
-11 -14 0 -7 4 -7 13 0 23 20 36 -3 42 -73 3 -39 8 -89 10 -112 2 -24 0 -43
-4 -43 -5 0 -10 47 -13 105 -5 105 -12 131 -27 106 -12 -18 -28 -7 -33 24 -3
14 -1 22 5 18 5 -3 7 3 4 13 -16 57 -19 107 -6 115 10 7 11 11 3 17 -7 4 -15
41 -19 82 -8 96 -12 107 -35 113 -14 3 -20 -1 -23 -17 -2 -11 -4 15 -4 59 0
46 2 60 4 33 2 -27 9 -48 14 -48 6 0 19 -10 28 -22 l18 -21 5 21 c4 15 2 22
-8 22 -11 0 -14 10 -13 38 2 21 -1 43 -5 50 -4 7 -1 12 8 12 19 0 21 11 5 27
-9 9 -5 11 15 9 15 -2 29 -6 32 -9z m-439 -257 c7 -14 9 -27 5 -30 -12 -9 -8
-43 6 -48 7 -2 12 6 12 22 0 14 4 26 9 26 10 0 -5 -85 -21 -117 -6 -13 -19
-23 -28 -23 -30 0 -43 -26 -31 -57 l11 -28 -4 27 c-2 16 3 33 10 39 10 8 14 8
14 0 0 -6 -4 -11 -9 -11 -4 0 -6 -11 -4 -24 5 -23 8 -23 90 -22 74 1 86 4 89
19 1 9 -3 17 -9 17 -5 0 -8 2 -5 5 3 3 12 3 21 -1 13 -4 16 -20 16 -68 -1 -60
2 -66 65 -164 63 -97 82 -137 54 -115 -8 6 -83 10 -176 9 l-162 -1 0 35 c0 19
4 30 8 25 4 -6 14 -10 22 -10 8 1 20 -3 26 -7 7 -5 18 -3 26 5 12 12 16 12 27
0 7 -8 10 -17 6 -21 -3 -3 -10 -1 -14 6 -6 10 -10 10 -19 -1 -10 -12 -2 -14
47 -13 33 1 63 5 68 10 5 5 2 6 -6 1 -9 -5 -12 -3 -9 6 3 8 11 13 18 11 8 -2
11 7 8 27 -2 17 -1 28 4 25 4 -3 8 -19 8 -35 0 -18 4 -28 10 -24 6 4 8 21 4
41 -4 22 -2 34 5 34 6 0 12 -10 13 -22 1 -13 2 -30 4 -38 1 -8 3 -22 4 -30 1
-8 6 -2 11 14 5 20 4 34 -3 43 -6 7 -7 13 -2 13 5 1 0 8 -11 18 -11 9 -20 24
-20 32 0 9 -12 15 -32 17 -21 2 -33 -2 -33 -10 0 -8 -4 -7 -11 3 -8 12 -12 12
-16 2 -4 -10 -8 -10 -19 -1 -19 16 -27 6 -26 -33 1 -23 -2 -28 -8 -18 -5 8 -6
26 -3 39 4 18 3 23 -8 19 -22 -9 -59 10 -59 29 0 15 2 16 10 3 5 -8 10 -11 10
-7 0 5 6 5 12 1 13 -8 48 -13 48 -7 0 2 -10 8 -22 13 -20 7 -17 8 15 8 28 -1
37 -5 37 -18 0 -14 7 -17 32 -14 17 2 35 10 40 17 12 19 9 67 -4 67 -10 0 -10
2 0 9 24 15 -16 22 -110 20 -74 -1 -88 -4 -88 -18 0 -14 -2 -14 -10 -1 -14 21
-12 94 2 108 6 6 8 15 4 19 -4 4 -11 1 -16 -7 -7 -11 -9 -9 -7 8 1 14 6 21 14
18 7 -3 13 -1 13 3 0 5 -6 11 -13 14 -24 9 -20 137 4 137 6 0 7 -4 4 -10 -3
-5 -8 -28 -11 -50 -5 -45 12 -56 19 -12 2 15 5 -3 6 -40 1 -55 4 -68 17 -68
14 0 15 11 9 87 -3 49 -12 91 -18 96 -8 6 -7 7 3 4 8 -2 20 -14 27 -27z m106
21 c26 -1 45 -55 37 -102 -7 -36 3 -56 13 -26 2 6 3 3 1 -8 -2 -11 1 -27 6
-35 8 -13 10 -12 10 3 0 9 4 17 9 17 8 0 21 42 26 83 3 24 15 34 15 12 0 -16
-38 -156 -45 -163 -1 -1 -10 1 -19 4 -14 5 -15 9 -4 15 10 7 10 9 1 9 -7 0
-13 9 -13 20 0 11 -7 20 -15 20 -12 0 -13 4 -5 19 15 29 12 97 -5 111 -8 7
-22 9 -31 6 -17 -7 -14 -42 4 -39 7 2 9 -4 5 -14 -4 -11 -3 -14 5 -9 7 4 5
-10 -5 -37 -19 -51 -13 -77 17 -77 12 0 19 -4 15 -10 -7 -12 -36 -2 -52 18
-11 13 -13 13 -19 -2 -4 -9 -12 -15 -19 -12 -7 2 -15 2 -18 -1 -9 -8 25 -40
48 -46 11 -2 -2 -5 -30 -5 -34 0 -42 2 -26 7 21 6 22 8 7 20 -13 11 -16 11
-16 1 0 -8 -2 -11 -5 -8 -9 9 20 55 32 51 12 -4 33 78 33 132 0 27 -4 35 -17
35 -10 0 -25 4 -33 10 -10 6 0 8 30 5 25 -2 53 -4 63 -4z m-1780 -88 c-19 -7
-15 -20 8 -26 11 -3 23 -15 26 -26 3 -12 13 -21 22 -22 10 0 11 -2 4 -6 -19
-7 -16 -31 6 -43 11 -5 37 -10 58 -10 l39 0 3 -122 c1 -68 3 -144 4 -171 l2
-47 -130 -2 -130 -2 130 -6 130 -5 0 -27 c1 -19 -2 -25 -9 -18 -11 11 -188 12
-298 1 -68 -6 -80 -20 -30 -35 16 -5 22 -3 22 7 0 17 56 25 203 26 l97 2 0
-26 c0 -15 4 -24 10 -20 6 4 10 -15 10 -49 l0 -56 -35 0 c-23 0 -35 -5 -34
-12 4 -34 -1 -40 -30 -33 -17 4 -32 2 -36 -5 -5 -8 13 -11 64 -9 40 1 76 -2
82 -8 6 -6 30 -8 55 -5 35 4 44 1 44 -10 0 -9 -7 -21 -15 -28 -9 -8 -15 -8
-15 -2 0 6 6 13 13 15 6 3 -5 6 -25 6 -20 1 -40 -3 -43 -9 -3 -5 -14 -10 -25
-10 -10 0 -20 -7 -24 -15 -4 -12 4 -15 39 -15 39 0 43 2 40 21 -3 12 -1 18 3
15 4 -4 8 -12 8 -17 1 -5 2 -11 3 -14 0 -3 10 -1 21 5 16 9 20 8 20 -5 0 -12
-13 -15 -62 -16 -35 0 -70 -2 -79 -4 -14 -2 -16 4 -12 34 5 37 5 38 -26 33
-17 -2 -31 -8 -31 -12 0 -5 9 -6 20 -3 16 4 20 0 20 -20 0 -29 -16 -33 -205
-43 -93 -5 -117 -4 -109 6 9 8 9 18 0 36 -12 25 -19 28 -51 14 -18 -8 -18 -9
-2 -9 14 -1 17 -6 12 -21 -4 -12 -2 -20 5 -20 6 0 9 -4 6 -9 -4 -6 -245 -23
-331 -23 -5 0 -18 -4 -27 -9 -14 -7 -18 -6 -18 5 0 9 6 13 15 10 12 -5 15 17
17 143 3 140 4 148 23 145 25 -5 72 -42 80 -65 4 -9 11 -15 16 -12 15 10 11
30 -11 53 -25 26 -25 38 -2 51 9 6 12 11 6 11 -6 0 -14 -3 -17 -6 -4 -4 -25
-7 -47 -8 -39 -1 -40 0 -40 32 0 31 2 32 43 34 l42 1 -44 6 -44 6 -1 97 c-1
54 2 98 7 98 4 0 7 -6 7 -12 0 -8 3 -9 8 -3 4 6 25 10 47 10 l40 0 0 93 0 92
35 1 35 2 -35 7 c-28 6 -21 8 38 9 54 1 74 5 78 16 7 17 24 20 24 4 0 -6 16
-50 36 -97 40 -95 97 -162 139 -162 15 0 47 24 96 76 79 81 98 106 78 102 -7
-2 -21 19 -31 47 -11 28 -28 57 -40 64 -19 12 -25 8 -74 -40 -30 -29 -54 -49
-54 -44 0 16 114 125 130 124 10 0 11 -2 3 -6z m3469 -603 c-12 -10 -28 -20
-35 -23 -6 -2 -9 -8 -5 -12 4 -4 14 -3 22 4 15 12 76 33 76 25 0 -3 -103 -70
-152 -99 -236 -138 -256 -152 -217 -163 11 -3 11 -1 -1 8 -11 8 -6 9 25 4 64
-11 70 -20 12 -20 -36 1 -59 6 -70 18 -17 16 -16 18 10 33 28 16 28 16 3 12
-14 -3 -34 -8 -44 -12 -16 -7 -18 -5 -13 8 5 13 1 17 -18 17 -13 0 -26 4 -29
9 -3 5 15 6 39 3 33 -3 45 -1 45 8 0 7 3 10 6 7 4 -3 15 -2 25 3 12 7 19 6 22
-3 4 -8 6 -7 6 3 1 15 24 31 121 83 30 17 58 35 62 41 4 6 8 7 8 2 0 -5 10 0
23 11 12 11 37 26 55 33 17 7 32 17 32 23 0 6 3 7 8 3 4 -4 -3 -16 -16 -26z
m-743 -65 c10 -10 -7 -14 -94 -18 -50 -3 -97 -8 -105 -10 -8 -3 -22 -5 -30 -5
-8 0 -59 -5 -114 -11 -89 -10 -101 -10 -129 6 -52 31 -45 42 30 46 82 5 435
-1 442 -8z m-1129 -34 c0 -5 -37 -12 -82 -15 -111 -8 -478 -22 -793 -31 -104
-3 -217 -7 -250 -10 -63 -4 -53 0 55 23 25 6 250 16 500 22 250 7 457 14 459
16 9 8 111 4 111 -5z m480 -440 c0 -5 -8 -12 -17 -14 -10 -2 0 -2 22 1 60 9
83 6 100 -12 9 -9 22 -16 28 -16 12 -1 67 -45 67 -55 0 -3 -7 -5 -15 -5 -8 0
-15 -4 -15 -9 0 -5 -12 -11 -27 -14 -21 -4 -48 6 -107 40 -63 36 -81 42 -88
32 -7 -11 -8 -10 -4 4 8 24 -23 36 -38 15 -10 -13 -15 -14 -29 -3 -17 12 -15
14 15 23 30 10 64 17 96 21 6 0 12 -3 12 -8z m-228 -236 c-3 -13 1 -16 12 -12
11 4 16 1 16 -10 0 -13 3 -14 12 -5 17 17 31 15 24 -3 -4 -13 -2 -13 14 -5 10
5 23 10 29 10 18 0 12 -18 -6 -23 -10 -3 2 -3 26 0 39 5 44 4 38 -12 -6 -15
-2 -17 32 -13 28 2 37 0 31 -7 -7 -8 6 -11 40 -11 28 0 50 3 50 8 0 4 5 8 10
8 11 0 14 -30 3 -31 -5 0 -17 -2 -28 -4 -52 -10 -307 -27 -313 -21 -12 13 -11
157 2 153 6 -2 10 -12 8 -22z m-3752 -527 c-14 -6 -29 -10 -34 -9 -5 1 -89
-12 -187 -29 -97 -16 -181 -30 -186 -31 -4 -1 3 -4 17 -8 16 -5 0 -8 -45 -7
-85 0 -207 -22 -198 -37 4 -6 -4 -8 -23 -3 -21 5 -25 4 -14 -4 13 -8 13 -10
-2 -10 -9 0 -18 6 -21 13 -2 6 -8 8 -13 4 -5 -4 -2 -12 6 -18 16 -10 41 -6 87
12 15 7 38 13 50 15 13 1 33 6 45 9 15 5 19 4 13 -2 -5 -5 -30 -15 -53 -22
-24 -7 -42 -15 -39 -17 6 -7 88 16 101 28 14 12 28 10 24 -4 -2 -6 -14 -13
-27 -15 -13 -2 -31 -8 -40 -13 -12 -8 -9 -9 12 -4 17 4 27 2 27 -5 0 -6 -18
-14 -40 -17 -41 -7 -56 -24 -20 -24 11 0 20 -4 20 -10 0 -20 -33 -9 -56 17
-13 16 -24 31 -24 36 0 4 -10 7 -22 7 -17 0 -19 -3 -9 -9 9 -6 10 -11 2 -15
-6 -4 -11 -2 -11 3 0 6 -4 11 -10 11 -5 0 -10 -9 -10 -21 0 -15 -4 -19 -16
-15 -10 4 -22 -1 -29 -11 -11 -15 -15 -15 -29 -4 -19 16 -35 6 -19 -10 13 -13
6 -42 -8 -34 -4 3 -6 12 -2 20 6 17 -8 20 -24 4 -7 -7 -14 -6 -24 3 -8 8 -32
22 -54 33 l-40 19 35 9 c23 6 41 5 52 -2 13 -8 16 -7 15 8 -1 16 -6 17 -47 8
-25 -5 -52 -9 -61 -9 -23 1 -13 -35 13 -49 13 -7 17 -17 13 -32 -5 -19 -5 -20
5 -4 6 9 21 17 33 17 18 0 19 -2 7 -10 -8 -5 -15 -15 -15 -22 0 -7 -8 -12 -18
-12 -9 1 -17 -2 -17 -6 0 -5 -3 -15 -6 -24 -4 -11 -1 -16 10 -16 9 0 16 -4 16
-10 0 -6 -10 -5 -25 2 -14 6 -25 17 -25 25 0 7 -8 17 -17 20 -10 4 -21 11 -25
17 -5 8 -11 7 -19 -1 -10 -10 -9 -17 5 -32 15 -16 15 -19 1 -24 -8 -4 -15 -2
-15 3 0 6 -4 10 -10 10 -5 0 -10 -7 -10 -15 0 -8 -4 -15 -10 -15 -5 0 -10 13
-10 30 0 18 -10 39 -25 54 -17 17 -21 26 -12 30 9 5 9 7 -1 12 -6 3 -10 10 -6
15 3 5 -7 9 -22 9 -53 0 -12 14 89 32 56 10 123 20 149 23 26 2 78 12 115 20
38 8 82 17 98 19 17 2 46 9 65 15 19 6 55 14 80 17 85 9 145 20 157 27 7 4 47
10 90 13 43 3 110 11 148 18 39 7 88 14 110 14 37 1 38 0 15 -10z m3298 -98
c11 25 11 25 11 -7 1 -18 6 -33 12 -33 6 0 9 -6 6 -14 -3 -8 -2 -29 3 -45 6
-22 5 -31 -3 -31 -8 0 -12 -19 -13 -52 0 -28 -5 -53 -11 -55 -6 -2 -9 -14 -6
-26 4 -18 3 -19 -6 -7 -10 13 -11 13 -11 0 0 -8 -3 -26 -6 -40 l-6 -25 21 25
c11 14 21 32 22 40 0 9 2 10 5 3 5 -10 -42 -112 -56 -123 -4 -3 -11 -14 -17
-24 -6 -11 -19 -21 -29 -23 -77 -13 -98 -14 -84 -4 8 6 25 11 37 11 13 0 28 9
35 20 7 11 19 20 27 20 11 0 12 3 4 11 -13 13 -54 -5 -50 -23 1 -6 -4 -13 -11
-15 -11 -4 -12 -1 -3 16 8 14 8 21 1 21 -5 0 -10 -4 -10 -9 0 -5 -16 -12 -35
-15 -21 -4 -33 -11 -29 -18 9 -15 -29 7 -45 25 -9 12 -5 16 24 21 20 4 39 14
42 22 3 7 12 14 19 14 8 0 18 8 21 18 4 9 19 37 33 62 34 58 46 104 61 220
l13 95 12 -40 c12 -39 12 -40 22 -15z"/>
<path d="M1466 5709 c-13 -22 -15 -30 -5 -25 8 4 4 -1 -7 -11 -30 -25 -43 -54
-40 -86 2 -15 0 -27 -3 -27 -4 0 -7 -9 -7 -21 0 -19 1 -19 13 -3 7 10 13 13
13 7 0 -6 -7 -16 -15 -23 -8 -7 -15 -27 -15 -44 0 -17 -7 -58 -15 -91 -12 -52
-12 -62 1 -75 12 -12 14 -12 14 6 0 20 17 44 32 44 4 0 5 -21 3 -47 -4 -35 -3
-42 4 -28 14 28 13 95 0 95 -8 0 -8 5 1 15 7 8 10 24 7 34 -3 11 -1 21 4 23 5
2 11 38 13 80 2 42 7 82 11 87 6 11 18 121 13 121 -2 0 -12 -14 -22 -31z"/>
<path d="M2991 2869 c-1 -12 -8 -15 -26 -11 -21 4 -25 1 -25 -21 0 -24 -4 -26
-47 -30 l-48 -3 47 -2 48 -2 -6 -52 c-11 -107 -19 -280 -13 -283 3 -3 63 -5
133 -6 161 -2 165 1 177 123 12 130 10 211 -6 232 -17 22 -76 35 -162 36 -50
0 -62 3 -66 18 -4 14 -5 14 -6 1z m150 -209 c-2 -52 -7 -99 -11 -105 -5 -5
-31 -8 -59 -7 -58 4 -56 -2 -44 136 l6 77 56 -3 56 -3 -4 -95z"/>
<path d="M3297 2811 c-2 -11 -15 -21 -28 -24 l-24 -4 24 -2 24 -1 -7 -102 c-4
-57 -9 -131 -12 -165 l-6 -63 44 0 45 0 6 53 c3 28 9 114 13 190 l7 137 -40 0
c-32 0 -42 -4 -46 -19z"/>
<path d="M3484 2813 c-45 -9 -55 -34 -66 -173 -9 -125 -9 -134 9 -159 24 -31
49 -39 130 -40 109 -2 133 26 133 154 l0 60 -39 0 -40 1 -7 -63 -6 -63 -44 0
c-23 0 -45 4 -48 9 -3 5 -3 50 1 100 l6 91 51 0 c28 0 65 -4 81 -9 l30 -8 3
48 3 49 -68 0 c-37 0 -77 2 -88 4 -11 2 -30 2 -41 -1z"/>
<path d="M3757 2772 c-13 -14 -18 -49 -23 -158 l-7 -140 28 -22 c23 -18 41
-22 104 -22 104 0 116 11 124 116 4 42 5 79 3 81 -2 2 -20 7 -40 10 -34 5 -36
4 -36 -23 0 -16 -3 -46 -7 -67 -6 -38 -6 -38 -46 -33 -22 3 -42 8 -44 10 -3 2
-1 46 3 96 l7 93 73 -7 74 -6 0 39 c0 37 -2 39 -37 45 -78 12 -159 7 -176 -12z"/>
<path d="M4050 2755 c-7 -9 -19 -14 -27 -11 -7 3 -13 1 -13 -4 0 -6 5 -10 11
-10 7 0 8 -42 3 -133 l-7 -133 28 -22 c23 -19 41 -22 112 -22 l84 0 -3 38 -3
37 -65 5 c-62 5 -65 6 -68 32 l-3 27 70 -6 71 -6 0 41 0 40 -70 7 c-70 7 -75
10 -64 39 7 18 60 21 112 7 l32 -10 0 43 0 43 -52 7 c-88 10 -135 7 -148 -9z"/>
<path d="M2437 2473 c-12 -14 -21 -90 -42 -362 -14 -189 -23 -346 -20 -349 7
-7 85 -5 92 2 5 5 6 17 23 296 6 102 15 232 19 290 7 89 6 108 -7 123 -8 9
-23 17 -32 17 -9 0 -24 -8 -33 -17z"/>
<path d="M8505 3235 c-49 -7 -97 -14 -105 -14 -14 -1 -14 -15 -1 -132 l15
-131 115 7 c64 4 117 8 119 10 4 3 -16 191 -25 243 -3 17 -10 31 -17 31 -6 -1
-51 -7 -101 -14z"/>
<path d="M6000 2355 c-11 -13 -12 -58 -6 -243 5 -125 8 -233 9 -239 0 -14 35
-28 44 -19 4 3 -1 6 -10 6 -10 0 -17 5 -17 10 0 6 7 10 16 10 15 0 16 13 11
123 -4 67 -7 170 -7 228 0 115 -13 156 -40 124z"/>
<path d="M6163 2344 c-3 -9 -3 -107 0 -218 4 -110 7 -211 7 -223 0 -14 6 -23
15 -23 8 0 15 -5 15 -12 0 -8 3 -9 10 -2 9 9 -4 420 -15 472 -6 26 -23 29 -32
6z"/>
<path d="M7027 2163 c-9 -8 -9 -70 -1 -100 7 -24 34 -32 34 -11 0 7 10 -2 23
-18 22 -30 51 -36 40 -8 -3 8 -1 14 5 14 6 0 13 -6 15 -12 4 -10 6 -10 6 0 1
6 8 12 16 12 9 0 15 10 16 23 1 20 2 20 6 2 7 -29 21 -41 34 -28 13 13 2 76
-12 67 -5 -3 -9 2 -9 10 0 9 5 16 10 16 6 0 10 7 10 15 0 23 -19 18 -30 -7
l-9 -23 0 23 c-1 16 -6 22 -18 20 -14 -2 -19 -16 -24 -58 l-6 -55 -1 58 c-2
53 -14 74 -25 45 -4 -10 -6 -10 -6 0 -1 6 -9 12 -19 12 -14 0 -17 -8 -16 -42
1 -38 1 -39 -3 -6 -4 36 -24 64 -36 51z"/>
</g>
</svg>
