<?xml version="1.0" standalone="no"?>
<!DOCTYPE svg PUBLIC "-//W3C//DTD SVG 20010904//EN"
 "http://www.w3.org/TR/2001/REC-SVG-20010904/DTD/svg10.dtd">
<svg version="1.0" xmlns="http://www.w3.org/2000/svg"
 width="960.000000pt" height="540.000000pt" viewBox="0 0 960.000000 540.000000"
 preserveAspectRatio="xMidYMid meet">
<metadata>
Created by potrace 1.14, written by Peter Selinger 2001-2017
</metadata>
<g transform="translate(0.000000,540.000000) scale(0.100000,-0.100000)"
fill="#000000" stroke="none">
<path d="M0 3041 c0 -1877 3 -2360 13 -2364 9 -4 9 -6 0 -6 -10 -1 -13 -75
-13 -336 l0 -335 4800 0 4800 0 0 1906 0 1906 -47 -6 c-35 -4 -44 -3 -35 6 16
16 15 45 0 51 -7 2 4 6 25 9 21 2 40 0 43 -4 3 -4 0 -8 -5 -8 -6 0 -11 -9 -11
-20 0 -11 7 -20 15 -20 11 0 15 13 15 54 l0 55 -42 4 -43 4 43 1 c43 2 60 26
25 35 -17 4 -17 5 0 6 31 2 20 31 -13 31 -24 0 -28 3 -23 18 4 9 11 21 17 25
7 5 2 7 -11 4 -29 -6 -28 -4 8 63 29 53 31 48 13 -24 -4 -16 -1 -25 10 -29 13
-5 15 65 16 663 l0 670 -1619 0 c-1174 0 -1620 -3 -1623 -11 -3 -8 -14 -8 -40
-1 -27 7 -38 7 -42 -1 -3 -9 -5 -8 -5 0 -1 10 -234 13 -1088 13 -909 -1 -1085
-3 -1070 -14 16 -13 24 -36 11 -36 -4 0 -17 11 -30 25 -16 18 -32 25 -56 24
-30 -2 -31 -2 -5 -6 15 -3 27 -11 27 -19 0 -8 4 -13 8 -10 4 2 16 -8 26 -23
10 -15 27 -32 36 -37 10 -5 43 -22 74 -37 56 -29 73 -44 37 -34 -12 3 -22 -1
-25 -10 -5 -11 -10 -12 -28 -2 -22 12 -22 11 -8 -6 11 -14 12 -19 3 -22 -7 -3
-13 -9 -13 -13 0 -5 -24 -45 -52 -89 -29 -44 -62 -94 -73 -112 -25 -41 -66
-107 -133 -213 -52 -84 -61 -106 -41 -106 5 0 7 -5 3 -12 -5 -7 -2 -9 8 -5 12
4 14 1 11 -14 -3 -10 -1 -19 3 -19 10 0 14 -28 17 -111 1 -31 8 -63 15 -72 7
-8 17 -57 23 -108 5 -54 18 -110 29 -134 11 -23 20 -51 20 -63 0 -11 5 -24 10
-27 6 -4 9 -20 8 -36 -2 -24 -6 -28 -21 -23 -12 4 -17 2 -13 -4 3 -5 -1 -15
-9 -22 -9 -7 -13 -21 -9 -35 4 -17 -1 -27 -23 -43 -15 -11 -39 -22 -53 -24
-22 -4 -18 -7 28 -28 28 -12 52 -27 52 -32 0 -6 7 -8 15 -4 9 3 15 0 15 -8 0
-8 -7 -16 -15 -20 -19 -7 -19 -22 1 -30 10 -4 13 -2 8 7 -4 6 1 5 12 -5 10 -9
44 -25 74 -36 222 -81 318 -114 339 -118 13 -3 39 -11 59 -19 19 -8 44 -15 55
-15 11 0 29 -8 39 -17 18 -16 18 -16 12 0 -5 13 0 17 21 17 22 0 25 -3 20 -20
-3 -11 -2 -20 3 -20 5 0 8 -12 5 -27 -3 -23 -2 -24 5 -9 8 18 10 16 20 -14 7
-18 12 -34 12 -36 0 -1 -16 2 -36 8 -42 11 -53 5 -32 -19 9 -10 13 -24 11 -31
-3 -8 -11 -5 -24 10 l-18 23 1 -27 c2 -16 8 -28 14 -28 9 0 10 -9 3 -32 -13
-46 7 -138 31 -138 5 0 10 -5 10 -11 0 -5 -10 -9 -22 -7 -14 2 -23 -2 -22 -9
1 -7 2 -24 3 -38 0 -14 7 -25 15 -25 8 0 16 -8 18 -17 3 -10 8 1 12 24 7 39
26 70 26 43 0 -6 4 -9 9 -6 5 3 11 -4 14 -15 3 -12 9 -19 14 -16 22 14 8 -326
-20 -487 -4 -21 -26 -36 -52 -36 -20 0 -25 4 -22 18 3 9 2 37 -3 62 l-7 45 -4
-45 c-1 -25 -2 -57 -1 -72 1 -16 -2 -28 -8 -28 -5 0 -10 7 -10 15 0 8 -6 15
-14 15 -17 0 -28 38 -12 43 8 3 8 8 -1 19 -7 8 -11 17 -8 20 3 2 7 84 10 182
2 97 8 183 12 189 4 7 10 38 13 70 l6 57 -41 11 c-22 6 -48 13 -59 16 -10 3
-22 -1 -27 -8 -11 -18 -12 -59 -1 -59 18 0 32 -53 32 -118 0 -56 -3 -69 -20
-80 -24 -15 -25 -42 -4 -84 14 -27 15 -40 5 -81 -6 -27 -11 -73 -11 -104 l0
-55 -92 6 c-65 4 -87 3 -73 -4 25 -12 -128 -2 -159 10 -12 5 -15 9 -8 9 7 1
10 6 7 12 -5 7 -12 5 -24 -5 -14 -13 -32 -13 -126 -4 -61 6 -112 13 -115 15
-2 2 2 8 10 13 8 5 11 13 6 17 -4 4 -14 0 -21 -11 -10 -13 -22 -17 -40 -14
-17 4 -25 1 -25 -9 0 -8 -4 -12 -9 -8 -6 3 -8 61 -5 141 l4 136 -62 -7 c-92
-10 -96 -12 -94 -45 1 -16 -2 -27 -6 -24 -4 3 -8 11 -8 18 0 17 -43 14 -65 -4
-16 -14 -17 -13 -11 8 8 23 -8 32 -18 10 -4 -9 -5 -8 -4 2 1 8 -3 24 -7 34 -6
13 -4 21 3 24 7 2 10 7 8 10 -2 4 15 7 37 6 76 -1 87 -4 87 -20 0 -12 4 -14
13 -7 6 6 22 9 34 8 12 -1 20 2 17 6 -2 4 0 10 6 14 5 3 10 1 10 -4 0 -6 9 -2
20 9 11 11 24 20 29 20 4 0 11 37 15 83 9 122 20 533 13 527 -3 -3 -7 -26 -8
-52 -2 -33 -6 -45 -16 -41 -7 3 -13 16 -13 29 0 25 -14 32 -25 13 -4 -6 -26
-8 -56 -5 -38 5 -50 2 -57 -11 -8 -14 -12 -13 -31 6 -28 28 -34 27 -48 -9 -11
-29 -43 -42 -43 -17 0 6 -3 21 -6 32 -4 16 3 27 29 45 19 14 35 30 36 35 0 6
29 12 63 15 45 4 0 9 -162 18 -124 8 -227 15 -229 18 -4 4 -12 52 -14 82 0 6
-5 12 -10 12 -5 0 -6 7 -3 16 4 9 0 22 -7 28 -8 6 -19 29 -25 51 -7 22 -21 51
-32 65 -17 21 -21 23 -30 10 -7 -11 -8 -6 -4 17 4 22 1 41 -10 58 -9 13 -17
41 -17 62 -1 21 -4 51 -8 67 -3 16 -6 -186 -7 -450 0 -306 -5 -521 -13 -594
-7 -63 -12 -179 -12 -257 0 -137 0 -143 -20 -143 -11 0 -122 12 -247 27 -300
35 -381 36 -446 3 -116 -59 -222 -228 -273 -437 -25 -98 -31 -113 -51 -118
-13 -3 -32 -3 -41 0 -17 5 -17 10 0 103 41 217 107 385 198 500 23 28 41 59
41 67 0 9 4 14 10 10 5 -3 27 8 50 24 26 19 36 31 28 35 -7 4 -3 4 10 2 12 -2
20 0 17 4 -9 15 81 23 139 13 l54 -10 7 74 7 73 68 0 c68 0 109 18 94 41 -3 6
1 20 9 32 8 12 17 38 21 57 7 33 6 34 -9 16 -14 -18 -15 -12 -15 79 0 143 28
687 40 770 5 39 17 174 25 300 9 127 22 300 30 385 17 177 23 260 25 310 l1
35 14 -25 c8 -14 14 -32 15 -41 0 -9 9 -24 20 -34 13 -12 20 -31 20 -54 l0
-36 20 25 c11 14 20 31 20 38 0 6 8 12 18 12 10 0 25 11 32 25 19 35 186 141
301 191 31 13 38 23 45 58 8 35 13 41 34 41 14 0 26 7 28 16 1 8 15 22 30 32
25 15 -76 16 -1690 17 l-1718 0 0 -2359z m4583 1946 c-3 -5 -1 -7 5 -3 9 6 90
-57 187 -146 22 -20 49 -45 61 -55 11 -10 68 -60 127 -111 58 -52 109 -102
112 -113 4 -10 11 -19 16 -19 5 0 8 -3 7 -7 -5 -19 14 -49 32 -50 16 -1 17 1
7 12 -6 7 -15 11 -19 8 -5 -2 -8 1 -8 6 0 36 68 -34 105 -107 14 -30 25 -55
23 -56 -2 -2 -29 -18 -62 -36 -51 -29 -60 -31 -67 -17 -16 27 -60 77 -67 74
-4 -1 -27 18 -51 43 -47 48 -42 38 30 -61 55 -76 60 -93 47 -156 -16 -78 -29
-74 -22 7 6 70 4 78 -21 115 -45 66 -134 172 -178 211 -22 21 -36 39 -29 42 9
3 8 7 -1 16 -9 11 -14 10 -23 -3 -10 -13 -8 -20 12 -39 28 -28 38 -75 31 -138
-3 -31 1 -56 13 -82 10 -20 29 -62 43 -92 39 -84 40 -85 73 -65 l29 17 -23
-21 c-28 -24 -24 -45 19 -108 16 -23 29 -48 29 -55 0 -10 -3 -9 -10 2 -5 8
-10 11 -10 6 0 -6 -7 -1 -15 10 -20 26 -19 14 4 -36 10 -23 16 -50 14 -61 -3
-10 -28 -36 -57 -56 -28 -20 -83 -61 -123 -90 -39 -29 -76 -53 -82 -53 -6 0
-11 -7 -11 -15 0 -23 -13 -18 -61 25 -24 22 -53 40 -64 40 -31 0 -65 11 -65
21 0 16 95 -4 138 -28 44 -26 54 -36 25 -27 -14 5 -15 4 -4 -4 9 -7 23 -3 46
12 19 11 60 37 91 56 81 49 144 112 144 144 0 42 -34 118 -80 181 -24 32 -53
77 -66 99 -28 48 -30 45 -8 -15 32 -89 -13 -222 -110 -324 -65 -68 -108 -79
-172 -44 -24 13 -39 26 -33 30 7 4 4 9 -6 13 -9 3 -21 4 -26 0 -5 -3 -9 0 -9
5 0 6 -10 11 -22 11 -21 0 -21 0 -2 21 19 22 19 22 -5 14 -20 -6 -23 -4 -18 9
6 14 3 15 -16 5 -12 -7 -25 -16 -28 -22 -4 -6 -16 -3 -30 7 l-23 16 24 0 c71
1 175 113 210 226 26 84 25 149 -1 227 -18 52 -20 76 -15 147 16 219 18 299 8
326 -6 16 -28 75 -50 132 l-40 102 64 -56 c35 -31 61 -61 57 -67z m1631 31
c-4 -18 -14 -44 -23 -58 -8 -14 -17 -38 -18 -54 -2 -16 -12 -35 -23 -43 -11
-8 -17 -19 -14 -25 4 -7 9 -6 14 3 5 7 21 14 37 15 26 2 29 -1 28 -32 -1 -22
-11 -44 -27 -62 -14 -15 -29 -37 -32 -49 -4 -11 -14 -27 -24 -35 -15 -12 -15
-11 1 14 19 31 21 38 8 38 -13 0 -25 -39 -23 -71 1 -15 -5 -39 -13 -55 -24
-47 -20 -58 15 -38 21 13 32 30 39 59 9 40 9 40 10 7 1 -34 -35 -96 -50 -86
-5 3 -6 -3 -2 -12 4 -12 3 -15 -5 -10 -8 5 -10 2 -6 -9 7 -18 -13 -72 -30 -78
-8 -3 -12 12 -12 50 -1 30 2 49 6 43 6 -9 9 -9 15 -1 4 7 2 17 -3 24 -11 13 4
85 33 163 12 31 20 41 33 37 20 -5 52 42 52 76 0 24 -22 28 -40 6 -7 -8 -16
-13 -20 -10 -5 3 -10 -3 -12 -12 -3 -16 -4 -16 -10 -2 -3 9 4 38 17 65 13 27
30 64 37 82 7 17 17 32 21 32 5 0 6 3 4 8 -5 8 10 52 17 52 3 0 3 -15 0 -32z
m-3953 -70 c3 -5 23 -11 44 -13 21 -2 41 -9 45 -15 9 -14 76 -50 94 -50 7 0
33 -16 57 -35 31 -24 46 -31 51 -22 7 11 12 2 9 -16 -1 -5 4 -7 11 -4 7 2 12
11 10 21 -4 23 6 20 39 -13 23 -23 29 -39 29 -70 0 -23 -1 -41 -3 -41 -2 0
-109 50 -238 111 -129 61 -250 118 -269 126 -35 15 -35 16 -10 22 39 11 124
10 131 -1z m-280 -42 c120 -49 348 -150 422 -188 34 -17 71 -33 82 -35 38 -6
45 -12 45 -40 l0 -27 -30 34 c-16 19 -29 30 -30 24 0 -6 6 -17 14 -23 19 -16
46 -102 46 -147 0 -49 -7 -40 -13 17 -11 97 -59 154 -167 198 -30 12 -84 37
-120 56 -36 18 -130 61 -210 95 -80 34 -147 64 -149 66 -14 13 36 -1 110 -30z
m657 -285 c2 -6 -6 -104 -18 -218 -21 -196 -35 -253 -61 -253 -5 0 -9 116 -9
260 l0 259 42 -19 c24 -10 44 -24 46 -29z m5119 -65 c-5 -12 2 -13 30 -9 26 4
34 3 29 -5 -4 -7 -14 -12 -22 -12 -10 0 -3 -12 20 -35 l35 -34 -14 -48 c-8
-26 -24 -86 -35 -133 -21 -88 -30 -117 -60 -185 -9 -22 -23 -62 -29 -90 -19
-72 -81 -274 -99 -317 -8 -20 -12 -44 -8 -53 4 -11 2 -14 -6 -9 -7 5 -9 2 -5
-9 3 -8 -1 -21 -9 -27 -8 -7 -14 -19 -14 -27 0 -15 -79 -97 -86 -90 -2 2 5 19
15 38 10 19 21 50 25 69 15 76 52 190 62 190 14 0 36 73 28 94 -3 9 -2 29 4
44 6 15 13 36 16 46 4 10 9 17 11 14 3 -3 -2 -24 -10 -48 -29 -82 -8 -50 28
42 43 110 60 175 51 189 -5 9 4 42 27 94 11 24 39 106 39 112 0 3 -6 1 -12 -4
-31 -25 -98 24 -98 70 l0 21 -16 -22 c-17 -25 -34 -21 -34 7 0 24 23 43 54 45
13 0 22 6 19 12 -2 7 10 28 27 48 34 38 46 45 37 22z m-1220 -33 c-12 -22 -13
-38 -4 -79 9 -45 8 -58 -12 -107 -26 -63 -22 -77 20 -77 32 0 37 -11 15 -29
-11 -9 -20 -9 -35 -2 -31 17 -36 14 -48 -36 -7 -27 -22 -82 -33 -123 -16 -60
-18 -81 -9 -107 6 -18 15 -33 21 -33 6 0 9 -3 6 -6 -4 -3 -63 18 -132 47 -106
45 -127 57 -137 82 -12 29 -3 46 27 47 6 0 17 7 24 15 10 12 3 11 -30 -4 -24
-11 -50 -31 -59 -45 -18 -30 -49 -38 -32 -8 19 32 38 52 50 52 6 0 19 16 28
35 9 19 20 35 25 35 4 0 26 36 48 80 34 68 61 100 85 100 3 0 -4 -12 -15 -27
-12 -17 -22 -52 -26 -90 -6 -50 -11 -63 -30 -74 -26 -13 -30 -24 -14 -34 6 -4
33 10 60 29 l50 36 0 -27 c0 -38 9 -23 27 44 8 32 20 61 26 65 9 6 9 8 0 8 -7
0 -13 8 -13 17 0 9 -10 28 -22 41 -13 14 -17 22 -9 17 9 -5 12 -4 7 3 -4 7
-17 12 -28 12 -28 0 -20 7 14 14 64 11 92 51 67 98 -11 21 -11 22 5 9 18 -15
18 -45 0 -101 -7 -22 -6 -23 8 -10 27 28 40 62 34 91 -4 20 -1 29 8 29 7 0 19
11 26 25 7 14 15 23 17 21 3 -2 -2 -17 -10 -33z m-496 -1074 c11 -5 16 -15 13
-21 -4 -6 -3 -8 4 -5 12 8 44 -2 38 -12 -2 -3 11 -6 29 -7 19 0 31 4 28 9 -3
5 0 7 8 5 8 -3 13 -10 12 -16 -1 -5 6 -8 17 -5 18 5 19 3 9 -26 -6 -17 -9 -37
-6 -45 3 -7 0 -19 -6 -25 -8 -8 -8 -14 0 -22 13 -13 33 -4 33 17 0 8 5 14 10
14 7 0 7 -7 0 -21 -7 -11 -9 -23 -6 -27 3 -3 -2 -14 -11 -25 -13 -15 -14 -18
-3 -12 13 8 13 6 1 -8 -7 -9 -11 -24 -7 -32 3 -9 2 -14 -3 -11 -4 3 -17 -4
-27 -16 -19 -21 -19 -21 2 -10 19 10 23 8 27 -8 3 -12 0 -20 -7 -20 -7 0 -21
-9 -30 -19 -17 -19 -17 -21 1 -45 13 -19 24 -25 41 -21 20 5 21 4 10 -14 -9
-15 -14 -17 -20 -8 -5 7 -8 -1 -8 -20 0 -18 -4 -33 -10 -33 -5 0 -10 6 -10 14
0 8 -8 17 -17 21 -15 5 -16 4 -5 -6 18 -19 15 -39 -7 -39 -10 0 -50 -10 -88
-23 l-70 -22 2 70 c1 39 5 77 9 84 16 25 34 128 41 228 6 83 5 107 -9 134 -22
45 -21 48 15 28z m-1102 -339 c78 -27 144 -50 147 -50 2 0 -3 11 -11 24 -15
22 -14 24 6 29 17 5 20 2 16 -13 -3 -11 1 -27 9 -37 12 -16 13 -14 14 22 0 37
1 38 17 22 15 -15 16 -31 4 -194 -18 -258 -21 -285 -34 -315 -11 -26 -37 -47
-37 -30 0 4 -33 6 -72 4 -51 -2 -69 0 -58 7 22 15 5 24 -18 10 -11 -7 -27 -9
-38 -4 -11 4 -34 7 -51 6 -26 -2 -32 1 -27 13 7 19 -7 21 -24 4 -9 -9 -12 -9
-12 -1 0 7 -10 13 -22 15 -22 3 -23 6 -20 113 1 81 6 113 16 121 15 11 46 188
46 263 0 22 2 41 3 41 2 0 68 -22 146 -50z m-3326 -270 l77 0 0 -40 c0 -22 5
-40 10 -40 6 0 10 -5 10 -10 0 -10 -47 -8 -138 6 -21 3 -32 1 -28 -4 8 -13 72
-21 259 -36 l149 -11 -19 -24 -19 -23 -144 11 c-215 18 -251 21 -297 27 -36 4
-43 2 -53 -17 l-12 -22 -24 29 c-14 15 -22 34 -19 42 3 7 5 39 5 69 l0 56 83
-6 c45 -4 117 -7 160 -7z m1237 -130 c14 -16 36 -31 50 -35 38 -11 59 -34 66
-74 4 -20 14 -45 23 -55 9 -11 10 -16 4 -12 -7 4 -13 3 -13 -3 0 -5 19 -9 43
-9 23 1 34 3 25 6 -20 4 -21 13 -12 61 5 21 12 31 25 31 21 0 23 8 9 30 -6 10
-10 11 -10 3 0 -7 -4 -13 -8 -13 -13 0 -10 30 2 31 15 2 50 -2 54 -6 2 -2 -4
-14 -13 -28 -21 -33 -26 -114 -7 -122 7 -3 39 -5 70 -4 55 1 56 1 22 11 -40
11 -50 23 -50 58 0 22 5 26 27 25 33 0 44 -32 19 -51 -15 -10 -15 -12 4 -17
11 -3 18 -1 14 4 -3 5 1 9 9 9 7 0 20 11 27 25 10 19 20 24 39 21 14 -2 34 -5
44 -5 15 -1 18 -8 15 -38 -2 -25 -8 -38 -18 -39 -59 -6 -61 -7 -20 -13 33 -4
45 -10 45 -23 0 -9 4 -20 9 -25 5 -4 6 -3 2 5 -4 6 -2 12 4 12 7 0 10 -6 7
-12 -2 -7 -20 -13 -40 -13 -21 0 -37 -3 -37 -6 0 -11 90 -15 94 -4 3 5 5 2 5
-7 1 -10 -4 -18 -10 -18 -8 0 -8 -4 1 -15 8 -10 10 -43 6 -117 -9 -143 -15
-171 -32 -157 -9 7 -12 26 -9 60 3 28 0 49 -5 49 -6 0 -10 -10 -10 -22 0 -13
-5 -30 -11 -38 -9 -13 -10 -12 -5 3 3 9 1 17 -4 17 -10 0 -14 -14 -10 -39 1
-12 -1 -13 -13 -2 -9 7 -21 11 -29 10 -35 -4 -43 2 -23 16 10 8 20 27 22 43
l3 27 -13 -25 c-9 -19 -23 -26 -57 -31 -25 -3 -38 -7 -30 -9 8 -1 21 -2 29 -1
7 2 11 -4 9 -11 -3 -7 2 -18 11 -25 14 -10 14 -11 -4 -10 -20 2 -22 -2 -24
-55 -1 -18 -7 -28 -17 -28 -8 0 -13 -4 -10 -9 4 -5 0 -12 -6 -14 -8 -3 -6 -6
5 -6 10 -1 15 -6 12 -11 -4 -6 -11 -8 -16 -5 -5 4 -9 1 -9 -4 0 -6 6 -11 13
-11 8 0 7 -4 -3 -10 -13 -8 -13 -10 0 -10 30 0 -6 -19 -45 -23 -39 -3 -38 -4
10 -6 38 -2 45 -4 30 -11 -29 -13 -135 -12 -135 1 0 5 5 7 10 4 11 -7 31 35
22 49 -2 5 -11 -2 -19 -15 -14 -23 -14 -23 -9 11 4 20 2 29 -2 22 -5 -7 -7 27
-6 75 l2 88 -9 -70 c-5 -38 -11 -86 -12 -105 -6 -57 -7 -60 -18 -60 -7 0 -9 9
-5 23 18 60 10 99 -13 60 -7 -13 -10 38 -10 162 0 216 -15 304 -72 422 -32 67
-46 86 -72 97 -17 7 -40 23 -51 34 l-19 21 54 -5 c42 -5 59 -12 79 -34z
m-1861 -59 c4 -6 15 -9 24 -5 9 3 34 -7 61 -26 26 -17 46 -28 46 -24 0 4 12
-4 28 -18 36 -35 82 -53 82 -33 0 18 12 19 28 3 9 -9 12 -9 12 0 0 7 11 12 25
12 18 0 23 4 19 15 -4 8 -2 15 3 15 5 0 9 9 10 19 2 23 -21 30 -97 32 -30 1
-68 5 -85 9 -37 9 95 10 205 1 63 -5 75 -9 78 -25 8 -39 34 -53 116 -60 44 -3
80 -7 82 -9 1 -1 -18 -44 -43 -96 -24 -52 -45 -102 -46 -112 -1 -16 -10 -19
-51 -19 l-50 0 24 -17 c31 -22 10 -20 228 -21 154 -2 182 -4 182 -17 0 -13
-32 -15 -229 -15 l-229 0 -7 -65 c-4 -36 -5 -68 -3 -71 3 -2 35 -7 72 -11 65
-6 67 -7 64 -32 -3 -23 1 -26 35 -29 44 -4 46 -11 12 -49 -20 -22 -26 -25 -34
-14 -5 8 -16 11 -25 8 -18 -7 -21 -32 -6 -42 19 -12 -1 -25 -38 -25 l-37 0 2
92 c2 67 0 85 -7 65 -11 -37 -15 -150 -6 -166 5 -7 24 -11 48 -9 l40 2 2 -39
2 -40 -60 0 -60 0 -2 68 c-1 37 -4 71 -8 74 -3 4 1 14 9 23 15 16 13 20 -15
43 -27 24 -42 46 -21 33 5 -3 11 7 13 22 2 18 0 29 -8 29 -7 0 -10 -7 -7 -16
4 -14 4 -14 -6 -1 -6 8 -11 24 -11 35 0 17 2 18 11 5 9 -13 10 -13 7 0 -3 8
-15 17 -29 21 -13 4 -18 7 -11 8 17 1 16 115 -3 150 -8 16 -13 30 -11 32 1 2
-5 11 -15 21 -16 15 -19 15 -46 -4 -16 -12 -36 -37 -44 -58 -11 -24 -28 -42
-53 -54 -20 -9 -44 -25 -54 -35 -25 -27 -61 -36 -75 -18 -8 10 -40 16 -102 20
-50 3 -102 10 -115 15 -14 6 -47 16 -74 24 -46 12 -47 13 -20 19 26 6 25 7
-11 8 -22 1 -58 8 -80 16 -30 11 -41 11 -47 2 -14 -23 -21 25 -9 59 7 19 10
38 7 42 -3 5 4 15 15 22 12 9 19 26 19 45 0 30 29 85 30 57 0 -8 12 0 26 17
14 17 34 31 45 31 10 0 19 5 19 11 0 6 10 10 23 9 42 -4 72 0 61 8 -6 4 -14
16 -18 27 -5 19 -1 20 90 19 63 0 98 -5 103 -13z m2849 -218 c3 -21 9 -23 80
-24 42 -1 109 -5 147 -9 61 -6 64 -7 23 -8 -46 -2 -48 -3 -48 -32 0 -28 -2
-30 -27 -25 -16 2 -109 5 -208 5 l-180 1 3 42 4 42 96 -3 96 -3 -19 21 -20 22
25 -3 c17 -3 26 -11 28 -26z m-1284 -250 c37 -24 38 -25 17 -39 -12 -9 -21
-25 -21 -36 0 -20 -1 -20 -18 -5 -35 31 -102 15 -139 -33 -10 -13 -12 -13 -18
3 -8 19 -45 24 -45 5 0 -6 -3 -8 -6 -5 -4 4 -1 13 5 21 7 8 10 20 6 26 -4 6
-1 9 7 8 7 -2 13 5 13 14 0 10 5 18 10 19 18 2 36 22 31 36 -5 11 -1 11 15 2
13 -7 19 -7 15 -1 -3 6 2 13 11 15 30 8 76 -4 117 -30z"/>
<path d="M2836 4872 c-4 -42 -8 -97 -10 -123 -5 -51 -2 -58 36 -78 31 -16 49
-8 28 12 -10 10 -11 9 -5 -2 5 -9 4 -12 -3 -8 -13 9 -3 47 13 47 20 0 37 27
30 50 -3 11 -13 20 -20 20 -12 0 -12 5 -4 24 9 20 8 30 -8 53 -11 15 -23 37
-27 47 -6 17 -5 17 11 5 11 -9 14 -10 9 -2 -4 7 -15 17 -26 23 -17 9 -19 4
-24 -68z"/>
</g>
</svg>
