<?xml version="1.0" standalone="no"?>
<!DOCTYPE svg PUBLIC "-//W3C//DTD SVG 20010904//EN"
 "http://www.w3.org/TR/2001/REC-SVG-20010904/DTD/svg10.dtd">
<svg version="1.0" xmlns="http://www.w3.org/2000/svg"
 width="960.000000pt" height="720.000000pt" viewBox="0 0 960.000000 720.000000"
 preserveAspectRatio="xMidYMid meet">
<metadata>
Created by potrace 1.15, written by Peter Selinger 2001-2017
</metadata>
<g transform="translate(0.000000,720.000000) scale(0.100000,-0.100000)"
fill="#000000" stroke="none">
<path d="M4466 5356 c-9 -19 -16 -57 -16 -85 0 -45 3 -53 24 -60 26 -11 36
-30 36 -72 0 -36 -27 -39 -78 -7 -30 18 -48 21 -134 20 -55 -1 -104 -5 -110
-8 -6 -4 -8 2 -6 12 4 23 56 32 70 12 8 -10 9 -10 5 2 -5 19 -63 25 -83 9 -9
-7 -14 -20 -11 -28 3 -13 -5 -16 -42 -16 -61 0 -140 -11 -172 -23 -15 -6 -30
-8 -33 -5 -3 4 -6 1 -6 -5 0 -7 -7 -12 -16 -12 -8 0 -13 4 -10 9 4 5 -7 4 -23
-2 -17 -6 -28 -14 -25 -18 2 -4 0 -10 -5 -13 -5 -3 -11 1 -15 9 -3 8 -15 15
-26 15 -29 0 -121 -40 -115 -50 3 -4 -2 -11 -11 -14 -26 -10 -34 -7 -27 10 6
15 4 15 -18 1 -13 -8 -48 -20 -78 -27 -39 -9 -49 -15 -40 -22 10 -7 8 -8 -9
-5 -12 3 -40 -4 -63 -15 -22 -10 -46 -17 -52 -15 -7 2 1 10 16 17 19 9 26 19
22 29 -5 13 -4 13 6 4 7 -7 18 -9 28 -4 40 20 295 101 318 101 8 0 11 5 7 13
-6 10 -4 10 7 0 7 -7 22 -13 32 -13 17 0 17 2 6 16 -7 8 -30 24 -51 35 -22 11
-59 35 -83 54 -64 49 -95 55 -250 54 -110 -1 -150 2 -185 16 -53 19 -90 15
-141 -19 -42 -28 -147 -62 -215 -70 -35 -5 -57 -14 -80 -37 -17 -16 -35 -29
-40 -28 -5 1 -16 -1 -24 -4 -8 -3 -106 -19 -216 -35 -179 -25 -204 -26 -223
-13 -15 10 -25 11 -32 4 -12 -12 -49 -5 -49 8 0 5 -11 9 -24 9 -14 0 -27 4
-31 9 -3 6 -13 10 -23 10 -73 1 -92 4 -92 17 0 21 -10 17 -42 -13 -15 -15 -28
-22 -28 -16 0 6 7 13 15 17 8 3 15 12 15 21 0 12 -4 13 -19 6 -21 -12 -32 -5
-24 15 4 10 -3 14 -21 14 -18 0 -26 5 -26 18 -1 16 -1 16 -11 -1 -10 -17 -12
-17 -23 -1 -12 15 -13 15 -19 1 -7 -20 -37 -12 -37 9 0 12 -4 12 -20 4 -11 -6
-25 -8 -31 -5 -17 11 -59 13 -59 2 0 -5 -5 -5 -13 2 -8 6 -17 8 -20 4 -4 -3
-19 0 -34 8 -22 12 -27 12 -31 0 -3 -9 -12 -5 -29 15 -19 22 -26 25 -33 15 -7
-12 -11 -11 -25 2 -9 10 -21 14 -27 11 -6 -4 -14 0 -19 7 -5 8 -9 9 -9 4 0 -6
-17 -9 -40 -7 -22 2 -40 7 -40 11 0 3 -10 7 -22 8 -38 2 -74 10 -86 17 -7 4
-12 3 -12 -3 0 -6 -11 -6 -32 -1 -21 7 -36 6 -45 -1 -10 -9 -13 -8 -13 5 0 19
-16 21 -23 4 -3 -7 -6 -2 -7 12 0 22 -2 23 -11 8 -5 -10 -16 -18 -24 -18 -8 0
-19 8 -24 18 -6 9 -11 13 -11 7 0 -5 -4 -4 -9 4 -8 12 -12 12 -26 -3 -10 -9
-24 -15 -32 -12 -8 3 -17 6 -19 6 -2 0 -4 6 -4 14 0 9 -7 12 -19 9 -10 -3 -22
0 -26 6 -4 8 -11 6 -22 -5 -15 -14 -17 -14 -25 0 -8 15 -11 15 -24 1 -19 -19
-34 -19 -34 -1 0 8 -7 16 -15 20 -8 3 -15 1 -15 -4 0 -6 -7 -10 -16 -10 -8 0
-12 5 -9 10 7 11 -24 8 -59 -6 -11 -4 -21 -2 -27 7 -7 12 -9 12 -9 -1 0 -11
-11 -15 -40 -15 -22 -1 -40 2 -40 6 0 11 -41 2 -54 -11 -7 -7 -5 -10 4 -11 8
-1 -19 -7 -60 -14 -46 -8 -79 -9 -86 -4 -8 6 -17 4 -27 -6 -9 -8 -27 -15 -41
-15 -14 0 -40 -8 -58 -19 -29 -17 -62 -23 -122 -22 -10 0 -16 -3 -13 -6 4 -3
-1 -12 -9 -20 -11 -12 -18 -12 -28 -3 -11 9 -17 7 -24 -6 -8 -14 -13 -16 -24
-6 -12 10 -22 6 -51 -16 l-36 -27 0 -1332 c0 -1041 2 -1333 12 -1336 9 -4 9
-6 0 -6 -18 -1 -16 -21 2 -21 8 0 15 6 15 13 0 9 3 8 9 -2 7 -10 18 -11 55 -3
25 5 43 6 40 1 -3 -5 -14 -9 -24 -9 -10 0 -22 -5 -25 -10 -4 -6 -23 -7 -46 -4
-38 6 -39 6 -39 -24 0 -17 6 -33 13 -35 9 -4 9 -6 0 -6 -18 -1 -18 -1807 0
-1814 9 -4 9 -6 0 -6 -9 -1 -13 -20 -13 -61 0 -33 3 -60 6 -60 16 0 62 42 58
53 -2 7 9 23 26 35 16 13 30 18 30 13 0 -6 -12 -17 -27 -25 -24 -12 -26 -15
-10 -21 25 -10 21 -19 -14 -32 -17 -7 -28 -16 -25 -22 4 -5 -3 -15 -15 -21
-17 -10 -20 -9 -14 1 5 8 4 10 -3 5 -16 -10 -14 -306 2 -306 7 0 6 -3 -2 -8
-14 -9 -12 -53 3 -64 6 -5 5 -8 -2 -8 -7 0 -13 -11 -13 -25 0 -29 2 -30 38 -9
21 13 23 13 9 1 -17 -14 -15 -15 29 -15 27 0 57 4 67 10 11 5 17 6 14 1 -4 -6
160 -10 419 -11 364 -1 426 1 431 13 3 8 10 15 15 15 6 0 5 -6 -2 -15 -11 -13
-5 -15 43 -15 35 0 57 5 60 13 4 10 6 10 6 0 1 -9 20 -13 62 -13 56 0 60 1 48
17 -12 15 -12 16 4 10 10 -4 21 -7 23 -7 3 0 3 -4 -1 -10 -8 -14 1735 -12
1752 2 9 7 13 7 13 -1 0 -8 125 -11 471 -10 398 0 471 3 476 15 3 8 10 14 15
14 6 0 5 -6 -2 -15 -11 -13 -8 -15 19 -15 18 0 42 5 53 11 14 8 18 8 14 0 -5
-7 804 -10 2759 -11 l2765 0 0 1075 0 1075 -26 0 c-57 0 -862 47 -1139 67 -84
6 -94 8 -60 14 22 4 99 3 170 -2 72 -5 249 -16 395 -24 146 -8 339 -20 430
-25 91 -5 179 -10 197 -10 l32 0 1 944 c0 717 -3 947 -12 952 -6 4 -14 2 -16
-4 -6 -19 -19 -14 -25 8 -4 17 -9 19 -30 11 -14 -5 -27 -8 -29 -6 -2 3 -21 6
-42 9 -20 3 -43 10 -51 16 -10 8 -15 8 -20 0 -5 -8 -10 -8 -20 0 -10 8 -15 8
-20 -1 -6 -8 -10 -7 -16 2 -7 12 -9 12 -9 0 0 -8 -6 -11 -16 -7 -9 3 -21 3
-27 -1 -21 -13 -35 -11 -41 4 -5 12 -9 13 -21 3 -13 -11 -15 -8 -16 16 l-1 29
-11 -27 c-12 -32 -19 -34 -41 -13 -13 13 -15 13 -21 -5 -3 -11 -12 -20 -20
-20 -8 0 -16 -9 -20 -19 -4 -12 -12 -18 -21 -14 -7 3 -14 0 -14 -7 0 -6 -4 -8
-10 -5 -5 3 -10 1 -10 -4 0 -15 -37 -14 -43 2 -4 9 -8 9 -15 -2 -6 -8 -17 -11
-27 -7 -9 3 -25 1 -35 -4 -15 -8 -23 -5 -37 14 -16 19 -21 21 -29 10 -13 -19
-79 -24 -109 -8 -14 7 -25 10 -25 6 0 -10 -72 -8 -87 1 -7 5 -13 4 -13 -2 0
-5 -9 -9 -20 -8 -11 1 -20 5 -20 10 0 4 -18 16 -40 26 -23 10 -36 21 -31 27 6
5 4 14 -5 22 -12 11 -14 10 -14 -3 0 -18 -20 -21 -20 -2 -1 8 -5 7 -13 -3 -16
-21 -42 -14 -61 15 -14 22 -23 24 -66 22 -29 -2 -58 2 -68 9 -14 10 -21 9 -36
-2 -17 -12 -21 -11 -33 6 -11 16 -18 18 -33 10 -12 -7 -21 -7 -25 0 -4 6 -13
5 -26 -3 -16 -10 -21 -9 -30 3 -8 13 -12 12 -28 -7 -11 -13 -21 -23 -24 -23
-3 0 -14 15 -26 33 -11 17 -21 27 -21 20 0 -6 -9 -11 -20 -10 -11 1 -20 7 -20
14 0 14 -43 9 -65 -7 -15 -11 -45 -8 -44 4 3 28 -3 36 -26 36 -15 0 -25 -6
-25 -14 0 -19 -48 -26 -65 -10 -7 8 -18 14 -24 14 -6 0 -11 5 -11 12 0 6 -8 4
-20 -7 -18 -16 -20 -16 -45 3 -15 12 -21 23 -15 27 5 3 10 1 10 -5 0 -6 5 -8
10 -5 6 3 10 13 10 21 0 8 -4 13 -9 10 -4 -3 -6 7 -4 22 3 26 3 26 -8 5 -19
-36 -76 -44 -63 -8 3 7 0 24 -6 36 -11 19 -14 20 -21 7 -9 -16 -59 -13 -59 4
0 5 -10 6 -22 2 -13 -3 -20 -3 -16 1 4 5 0 13 -9 20 -13 10 -22 9 -42 -1 -22
-11 -27 -11 -34 1 -12 23 -21 18 -36 -17 l-13 -33 -9 31 c-11 39 -38 52 -53
27 -9 -16 -11 -16 -17 7 -6 23 -7 22 -8 -8 -1 -30 -3 -32 -21 -22 -22 12 -27
36 -7 43 10 4 10 6 0 6 -7 1 -13 10 -13 20 0 11 6 22 13 24 7 3 5 6 -5 6 -15
1 -18 12 -20 74 -1 63 -2 65 -5 17 -5 -84 -22 -130 -48 -130 -13 0 -28 7 -35
15 -10 12 -16 13 -26 4 -9 -8 -14 -8 -14 -1 0 6 -11 9 -25 6 -17 -3 -27 1 -30
11 -16 51 -17 51 -25 30 -10 -24 -12 -14 -12 65 l0 55 -8 -65 c-9 -73 -25
-120 -39 -120 -6 0 -17 9 -25 21 -8 12 -19 18 -25 14 -6 -3 -11 -2 -11 4 0 5
-3 16 -6 25 -3 9 -1 16 6 16 6 0 8 -4 5 -10 -3 -5 1 -10 9 -10 9 0 16 6 16 14
0 16 -37 29 -42 15 -5 -14 -68 11 -68 27 0 21 -38 38 -55 24 -11 -9 -18 -7
-35 10 -11 11 -18 25 -15 31 6 9 -32 48 -48 49 -13 0 -37 27 -30 34 4 3 1 6
-5 6 -7 0 -12 6 -12 14 0 7 -6 19 -14 25 -11 9 -18 8 -30 -4 -13 -14 -16 -14
-16 -2 0 25 -26 39 -40 22 -16 -20 -59 -19 -67 1 -3 8 -11 13 -19 10 -15 -6
-76 15 -86 29 -4 6 -8 20 -8 31 0 16 -7 23 -30 26 -16 3 -33 1 -37 -2 -15 -14
-73 -20 -73 -9 0 8 -5 7 -15 -1 -14 -12 -19 -7 -16 14 3 17 -21 36 -37 27 -8
-5 -23 -6 -33 -4 -11 3 -18 -2 -21 -13 -3 -17 -4 -17 -21 0 -17 17 -18 17 -38
-8 -11 -14 -26 -26 -32 -25 -8 0 -8 2 1 6 21 8 14 43 -9 43 -16 0 -19 4 -14
20 7 21 -12 28 -30 11 -12 -11 -63 -26 -53 -16 7 8 -15 35 -28 35 -4 0 -16 -8
-27 -17 -19 -17 -20 -17 -14 7 3 14 2 32 -3 40 -5 8 -10 11 -10 6 0 -5 -6 -3
-14 3 -19 16 -41 -20 -24 -37 9 -9 9 -12 0 -12 -7 0 -12 3 -12 8 0 4 -9 13
-20 19 -22 14 -50 7 -50 -12 0 -7 -7 -26 -15 -41 l-15 -29 0 32 c0 17 -6 34
-12 36 -10 4 -9 8 2 16 13 10 13 12 0 21 -8 5 -21 10 -27 10 -7 0 -13 8 -14
18 -1 15 -9 5 -12 -15 -1 -10 -23 -33 -32 -33 -3 0 -5 6 -4 13 5 36 -1 48 -21
42 -16 -5 -19 -3 -14 12 5 15 4 16 -5 3 -6 -8 -11 -24 -11 -35 -1 -18 -1 -19
-11 -2 -5 9 -14 36 -18 60 -8 42 -13 39 -26 -17 -5 -23 -8 -27 -16 -15 -5 7
-9 26 -9 42 0 15 -4 27 -10 27 -5 0 -11 -12 -11 -27 l-1 -28 -8 30 -7 30 -11
-25 -11 -25 -1 30 c-1 26 -3 27 -9 10 -5 -11 -6 -24 -3 -29 2 -5 -1 -6 -9 -4
-8 3 -19 -2 -25 -10 -10 -14 -12 -13 -18 6 -8 24 -22 29 -29 10 -3 -8 -8 -4
-14 10 l-9 23 -22 -21 c-12 -11 -22 -25 -22 -30 0 -6 -4 -10 -10 -10 -5 0 -10
9 -10 20 0 28 -14 25 -30 -7 -11 -23 -14 -25 -17 -10 -5 19 -69 25 -75 6 -2
-6 -13 -3 -28 9 -20 16 -29 18 -48 9 -17 -8 -25 -8 -31 2 -6 9 -11 9 -20 -3
-17 -21 -53 1 -45 27 7 24 -5 79 -17 71 -5 -3 -9 -20 -10 -37 l-1 -32 -12 37
c-9 29 -14 35 -26 28 -11 -7 -17 -4 -22 8 -5 13 -8 9 -13 -15 -8 -35 -24 -45
-26 -15 0 9 -3 12 -5 5 -4 -9 -13 -9 -30 -2 -15 5 -32 5 -42 0 -9 -4 -23 -6
-29 -4 -18 6 -16 43 1 43 8 0 13 9 12 24 0 13 -4 22 -8 20 -4 -2 -9 0 -12 5
-3 5 5 16 19 25 28 19 29 25 14 96 -13 59 -30 80 -69 80 -22 0 -31 -7 -44 -34z
m-2 -474 c-25 -16 -27 -121 -2 -106 5 3 7 13 3 23 -4 10 2 7 15 -7 17 -18 32
-23 59 -21 57 3 93 0 88 -8 -9 -15 18 -30 38 -22 19 7 18 8 -2 8 -31 1 -29 18
3 24 23 4 25 2 22 -27 -2 -25 -7 -31 -25 -30 -13 0 -23 -3 -23 -8 0 -4 5 -8
11 -8 6 0 9 -6 6 -14 -3 -8 -1 -17 6 -20 9 -3 8 -8 -3 -15 -22 -16 -38 -13
-45 8 -9 30 -41 61 -61 61 -11 0 -31 -13 -45 -30 -32 -36 -43 -70 -23 -70 8 0
19 -12 24 -26 13 -33 13 -34 -5 -28 -8 4 -15 15 -15 25 0 10 -4 19 -10 19 -16
0 -12 -18 11 -49 12 -16 18 -34 15 -40 -4 -6 -2 -19 3 -30 9 -16 8 -18 -9 -14
-25 7 -34 39 -34 125 0 37 -3 65 -6 63 -10 -6 -30 166 -23 198 3 16 12 27 22
27 10 0 12 -3 5 -8z m936 -546 c276 -47 462 -126 525 -226 18 -28 65 -202 65
-240 0 -15 -60 23 -66 43 -3 9 -8 17 -12 17 -4 0 -8 20 -10 45 -2 26 -8 58
-14 73 -6 15 -11 30 -10 34 1 4 -6 4 -15 1 -11 -4 -14 -3 -9 5 4 7 2 10 -7 6
-7 -2 -24 4 -37 14 -17 14 -21 24 -15 38 6 15 9 16 12 4 4 -16 71 -42 78 -30
3 4 -5 16 -17 26 -13 12 -18 13 -13 4 5 -8 -5 -4 -22 10 -17 14 -29 28 -27 31
2 4 -7 7 -21 7 -13 0 -31 7 -40 16 -9 9 -23 16 -31 16 -8 0 -32 9 -53 19 -26
14 -41 17 -48 10 -8 -8 -18 -6 -34 4 -13 8 -71 27 -129 41 -153 38 -271 34
-302 -9 -4 -5 -8 4 -8 22 0 17 6 34 13 36 27 12 109 6 247 -17z m403 -520
c157 -31 225 -84 211 -164 -8 -44 -21 -62 -43 -61 -12 0 -11 2 4 9 18 7 18 9
-10 20 -16 7 -35 13 -42 14 -20 3 -25 13 -30 53 -5 45 -26 64 -99 87 -29 9
-57 22 -61 29 -5 7 -19 18 -33 25 l-25 11 25 -4 c14 -2 60 -11 103 -19z
m-1927 -161 c3 -14 4 -34 1 -45 -4 -17 0 -20 29 -20 31 0 34 -2 35 -32 2 -31
2 -31 6 -6 5 30 14 34 101 41 l52 4 0 -52 c0 -59 -8 -65 -84 -65 -21 0 -79 -5
-127 -12 -49 -6 -91 -10 -93 -7 -3 3 -8 51 -11 108 l-7 104 25 -5 c14 -3 32
-1 39 3 21 14 27 11 34 -16z m1116 -237 c18 2 33 -4 45 -17 9 -12 23 -21 30
-21 18 0 16 -68 -3 -105 -10 -19 -11 -31 -5 -33 16 -5 14 -169 -1 -176 -8 -4
-9 -8 -3 -11 13 -6 7 -175 -6 -175 -5 0 -9 -5 -9 -11 0 -5 4 -7 10 -4 14 8 1
-206 -14 -224 -8 -11 -8 -15 1 -18 16 -6 5 -134 -13 -153 -11 -11 -22 -12 -54
-4 -21 6 -37 7 -34 3 3 -5 0 -9 -5 -9 -7 0 -11 29 -11 75 0 50 -4 75 -12 75
-7 0 -5 6 4 18 13 14 17 68 23 317 3 165 10 338 16 385 7 71 6 87 -6 96 -17
13 -20 34 -5 34 6 0 11 12 12 28 0 15 4 5 7 -23 6 -47 7 -50 33 -47z m2253
-10 c407 -1 671 -4 588 -5 -84 -2 -153 -7 -153 -12 0 -5 18 -7 40 -4 26 4 40
2 40 -6 0 -6 18 -12 43 -13 36 -1 38 -2 10 -5 -31 -4 -33 -7 -33 -43 0 -21 -5
-40 -12 -42 -9 -3 -8 -13 4 -38 9 -19 16 -35 15 -36 -1 -1 -106 1 -234 4 -128
4 -243 4 -255 0 -20 -5 74 -10 186 -10 27 0 35 -2 25 -9 -8 -5 -22 -6 -31 -3
-10 3 -18 0 -18 -7 0 -7 10 -10 28 -6 23 5 28 2 28 -14 0 -10 -4 -19 -8 -19
-4 0 -8 5 -8 10 0 6 -8 10 -17 10 -15 0 -14 -2 3 -15 21 -16 54 -20 54 -6 0 5
-6 12 -12 15 -9 3 -7 8 6 17 15 9 16 13 5 20 -9 6 5 9 38 9 28 0 54 -4 58 -10
3 -5 35 -7 73 -4 46 3 61 1 47 -5 -11 -5 -32 -10 -47 -10 -16 -1 -28 -5 -28
-11 0 -5 7 -7 15 -4 8 4 23 3 32 0 14 -6 15 -9 4 -15 -9 -6 -5 -10 14 -15 16
-4 32 -3 38 3 8 8 7 11 -2 11 -7 0 -9 5 -6 10 3 6 30 10 60 10 30 0 57 -4 60
-10 3 -5 -2 -11 -12 -11 -17 -1 -17 -2 0 -6 18 -5 25 -53 7 -53 -5 0 -10 9
-10 20 0 13 -7 20 -20 20 -11 0 -20 -6 -20 -14 0 -10 -21 -16 -76 -21 -41 -4
-78 -4 -81 -1 -4 3 13 6 36 6 30 0 41 4 38 13 -3 7 -22 12 -53 11 -49 -2 -49
-2 -19 12 l30 13 -33 1 c-18 0 -41 -6 -52 -12 -15 -10 -22 -10 -32 0 -18 18
-25 15 -32 -13 -4 -14 -11 -25 -17 -25 -6 0 -9 7 -6 14 4 10 1 13 -9 9 -18 -7
-18 -3 10 -41 l23 -32 17 35 c17 34 39 45 51 25 3 -6 -5 -14 -18 -19 -13 -5
-27 -19 -30 -31 -4 -17 -3 -19 9 -9 7 6 22 8 31 4 14 -6 9 -10 -22 -20 -22 -7
-31 -13 -21 -14 15 -1 17 -4 9 -12 -8 -8 -17 -8 -32 1 -19 10 -32 5 -93 -30
-39 -22 -73 -39 -75 -36 -3 2 32 25 76 51 45 26 81 49 81 51 0 2 -12 22 -26
44 -25 37 -63 70 -83 70 -5 0 -42 -20 -82 -44 -40 -25 -77 -42 -82 -39 -5 3
-3 10 4 15 11 8 10 9 -3 4 -10 -3 -34 4 -53 15 -29 17 -58 22 -172 26 l-138 6
2 -139 c2 -152 0 -153 -43 -9 -35 118 -69 155 -141 155 -28 0 -76 -9 -107 -20
-56 -19 -57 -19 -89 0 -20 12 -50 20 -79 20 l-47 0 -3 -77 c-3 -82 -5 -84 -60
-74 -3 0 -4 28 -1 61 7 76 -6 89 -89 90 l-58 0 0 -40 0 -40 -59 0 c-71 0 -71
0 -71 -120 l0 -88 30 -4 c29 -4 30 -3 30 34 0 25 4 37 11 33 6 -4 8 -13 5 -21
-3 -8 0 -13 7 -11 7 1 11 -6 10 -16 0 -10 2 -16 5 -13 15 16 32 -21 32 -69 0
-48 2 -53 28 -63 15 -6 47 -12 71 -14 l44 -3 -2 78 -2 78 33 -3 33 -3 0 -63
c0 -87 10 -93 142 -92 3 0 5 28 4 61 -3 64 12 75 24 19 9 -42 49 -87 89 -100
34 -11 147 -10 140 1 -2 4 13 10 33 14 20 3 47 14 62 23 14 9 22 12 18 5 -4
-7 4 -20 19 -32 20 -16 41 -21 85 -21 l59 0 0 76 0 76 74 -7 c56 -5 80 -4 102
8 28 15 29 15 61 -34 18 -26 33 -50 33 -52 0 -9 -35 -2 -42 8 -12 15 -9 27 4
19 7 -4 8 -3 4 5 -4 6 -12 8 -18 5 -7 -5 -9 -2 -5 8 7 20 -13 41 -28 28 -6 -5
-49 -11 -95 -13 l-85 -3 96 -2 c92 -2 96 -3 108 -28 6 -14 9 -29 6 -34 -3 -4
11 -7 29 -5 28 1 39 -4 56 -26 11 -16 38 -38 60 -49 57 -29 107 -26 163 10 47
29 71 31 81 5 7 -20 -4 -24 -47 -21 -22 2 -41 -2 -48 -10 -6 -7 -32 -16 -57
-19 -26 -3 -58 -8 -71 -11 -18 -4 -22 -2 -18 10 4 10 1 16 -9 16 -8 0 -12 5
-9 10 3 6 1 10 -4 10 -6 0 -11 -5 -11 -11 0 -5 -5 -7 -10 -4 -6 4 -9 9 -6 13
2 4 -5 16 -15 26 -11 11 -19 14 -19 8 0 -6 5 -14 10 -17 6 -4 8 -11 5 -16 -4
-5 -1 -9 4 -9 6 0 11 -7 11 -15 0 -8 5 -15 10 -15 6 0 10 -11 10 -24 0 -26
-14 -30 -150 -39 -36 -3 -32 -4 20 -6 158 -6 160 -20 3 -16 -122 2 -163 0
-163 -9 0 -8 -25 -12 -80 -11 -44 0 -80 4 -80 9 0 4 -36 5 -80 1 -56 -5 -80
-4 -80 4 0 6 19 12 43 13 l42 1 -37 4 c-49 5 -105 -22 -87 -43 10 -12 3 -14
-45 -14 l-56 0 0 -40 c0 -38 2 -40 30 -40 17 0 30 -3 30 -7 0 -5 -24 -6 -52
-4 -29 2 -47 6 -40 8 18 7 16 83 -3 83 -11 0 -15 -11 -15 -40 0 -36 -2 -40
-25 -40 -16 0 -25 6 -25 15 0 13 -5 12 -27 -4 -41 -30 -133 -30 -528 -1 -71 5
-159 9 -195 8 -64 -1 29 -9 495 -42 127 -10 379 -28 560 -41 182 -13 443 -31
580 -40 329 -20 482 -34 508 -46 16 -7 9 -8 -28 -4 -27 2 -104 7 -170 10 -181
9 -1129 73 -1395 94 -114 10 -234 11 -210 3 6 -2 8 -8 5 -12 -3 -5 9 -5 27 1
51 14 98 12 98 -6 0 -18 2 -18 34 -4 29 13 179 3 170 -12 -3 -5 3 -9 13 -9 10
0 29 -3 43 -6 20 -4 22 -3 10 5 -12 8 -8 11 18 11 18 0 31 -4 27 -9 -8 -15
100 -25 135 -13 32 12 37 9 19 -11 -11 -12 -29 -11 -274 8 -92 7 -339 25 -347
25 -5 0 -7 3 -7 8 6 37 2 38 -168 50 -300 22 -348 25 -343 19 3 -3 70 -10 148
-15 90 -7 149 -15 159 -24 12 -9 15 -10 9 0 -5 8 0 12 14 12 12 0 18 -4 15
-10 -3 -5 -1 -10 4 -10 6 0 11 5 11 10 0 12 54 5 108 -13 44 -15 41 -31 -5
-23 -21 3 -121 11 -223 16 -102 6 -191 12 -198 15 -7 3 -95 9 -195 15 -430 24
-434 25 -434 45 0 18 13 20 20 3 3 -8 6 -6 6 5 1 14 -8 17 -51 18 -68 1 -53 6
47 15 58 5 72 9 50 13 l-30 6 4 210 c1 116 6 289 10 385 4 104 3 180 -2 188
-6 8 -5 12 2 12 7 0 11 25 11 70 0 40 -4 70 -10 70 -5 0 -10 -4 -10 -10 0 -5
-4 -10 -10 -10 -5 0 -10 7 -10 16 0 15 60 16 728 10 400 -3 1060 -7 1467 -8z
m841 -19 c4 -8 9 -7 15 2 5 8 8 -83 7 -211 -2 -216 -3 -218 -5 -52 -2 94 -5
172 -8 172 -19 0 -55 -22 -55 -34 0 -8 -5 -18 -10 -21 -7 -4 -9 2 -4 19 5 20
2 26 -10 26 -15 0 -18 -9 -20 -55 0 -11 -4 -23 -9 -26 -14 -10 -21 -89 -8 -89
6 0 11 4 11 10 0 5 7 7 16 3 13 -5 13 -7 2 -14 -7 -5 -21 -9 -31 -9 -17 0 -18
7 -15 57 2 32 -1 58 -7 60 -6 2 -10 -39 -10 -111 0 -96 2 -113 15 -109 13 4
13 4 0 -6 -13 -9 -15 -63 -17 -357 -1 -191 -5 -349 -8 -352 -3 -3 -5 38 -5 91
0 86 -2 97 -17 97 -17 1 -17 1 0 11 17 10 18 36 16 407 0 218 0 414 0 435 1
57 21 35 21 -24 0 -44 2 -49 23 -48 16 0 18 2 7 7 -10 5 -16 23 -17 52 l-2 45
14 -35 15 -35 -3 38 c-2 20 1 37 5 37 4 0 8 7 8 15 0 18 75 21 86 4z m-5554
-90 c23 -12 41 -11 33 1 -3 6 1 10 9 10 12 0 16 -11 16 -41 0 -38 -2 -41 -22
-34 -13 3 -107 9 -210 12 -113 3 -188 10 -188 15 0 6 9 8 20 5 13 -3 25 1 32
12 8 14 19 16 59 11 26 -3 46 -3 43 2 -3 4 -3 8 0 8 2 0 13 3 23 6 13 4 15 3
4 -4 -10 -7 -3 -11 24 -14 34 -4 35 -3 19 10 -18 14 -18 14 -1 8 27 -9 74 -17
58 -10 -11 5 -11 8 0 15 14 8 51 3 81 -12z m2385 -168 c-3 -40 -1 -61 6 -64 8
-2 7 -16 -3 -46 -12 -37 -12 -44 1 -52 11 -7 11 -9 0 -9 -8 0 -11 -7 -8 -20 3
-11 1 -35 -4 -53 -4 -17 -11 -54 -15 -82 l-7 -50 -12 45 c-13 44 -13 42 -13
-57 0 -86 3 -103 17 -105 10 -3 8 -6 -9 -9 l-25 -5 3 115 c3 160 12 252 23
226 7 -19 8 -19 8 2 1 12 -3 25 -9 28 -5 3 -10 12 -10 18 0 7 4 6 11 -3 8 -12
9 -8 7 15 -2 17 -7 33 -13 37 -6 4 -2 8 8 8 21 0 37 38 37 86 0 19 3 34 6 34
4 0 4 -27 1 -59z"/>
<path d="M4969 2898 c-3 -13 -8 -85 -14 -194 -6 -127 -5 -132 14 -137 12 -3
23 -2 25 2 2 3 8 79 12 169 7 161 7 162 -15 162 -11 0 -21 -1 -22 -2z"/>
<path d="M5200 2980 l0 -100 75 0 c90 0 95 6 95 109 0 85 -7 91 -104 91 l-66
0 0 -100z"/>
<path d="M5486 3048 c-3 -13 -8 -49 -11 -80 -8 -76 11 -98 89 -98 69 0 88 17
84 74 -3 36 -6 41 -30 44 -26 3 -28 1 -28 -32 0 -33 -2 -36 -30 -36 -30 0 -30
1 -30 55 l0 56 49 -5 c38 -4 51 -2 55 10 12 31 5 34 -69 34 -69 0 -75 -2 -79
-22z"/>
<path d="M5696 3057 c-13 -9 -19 -32 -22 -84 -7 -94 9 -113 94 -113 32 0 63 5
70 12 7 7 12 34 12 60 0 47 -1 48 -31 48 -25 0 -30 -3 -25 -16 12 -31 -3 -54
-35 -54 -29 0 -29 1 -29 55 l0 55 55 0 c52 0 55 1 55 25 0 24 -2 25 -63 25
-36 0 -71 -6 -81 -13z"/>
<path d="M5892 3048 c-7 -7 -12 -44 -12 -94 0 -96 -1 -95 105 -103 l71 -6 -4
28 c-4 26 -7 27 -58 27 -41 0 -54 4 -54 15 0 12 13 15 55 15 52 0 55 1 55 25
0 24 -3 25 -55 25 -42 0 -55 3 -55 15 0 12 13 15 55 15 52 0 55 1 55 25 0 24
-2 25 -73 25 -43 0 -78 -5 -85 -12z"/>
</g>
</svg>
